<svg fill="currentColor" width="1em" height="1em" viewBox="0 0 48 48" fill="none" xmlns="http://www.w3.org/2000/svg"><path clip-rule="evenodd" d="M47 24c0 1.148-.45 2.296-1.349 3.172l-9.77 9.514c-1.798 1.752-4.714 1.752-6.513 0l-4.148-4.04-.064-.06a1.759 1.759 0 00-2.371.056l-4.153 4.044c-1.799 1.752-4.715 1.752-6.514 0l-9.77-9.514A4.412 4.412 0 011 24c0-1.148.45-2.296 1.349-3.172l9.77-9.514c1.798-1.752 4.714-1.752 6.513 0l4.153 4.044c.652.632 1.695.65 2.37.056l.065-.06 4.148-4.04c1.799-1.752 4.715-1.752 6.514 0l9.77 9.514A4.412 4.412 0 0147 24zm-23.227 0c0-.385-.15-.77-.451-1.063l-4.136-4.028-.012-.011-2.717-2.647a1.558 1.558 0 00-2.164 0l-6.865 6.686a1.48 1.48 0 000 2.126l6.865 6.686a1.558 1.558 0 002.164 0l2.717-2.647.012-.011 4.136-4.028A1.48 1.48 0 0023.773 24zm5.977 0c0 1.148-.45 2.296-1.349 3.172l-.93.905c.483.28.94.62 1.355 1.026l2.717 2.646a1.558 1.558 0 002.164 0l6.865-6.686a1.48 1.48 0 000-2.126l-6.865-6.686a1.558 1.558 0 00-2.164 0l-2.717 2.646a6.836 6.836 0 01-1.355 1.026l.93.905A4.412 4.412 0 0129.75 24z"/></svg>
