<svg fill="currentColor" width="1em" height="1em" viewBox="0 0 48 48" xmlns="http://www.w3.org/2000/svg"><path clip-rule="evenodd" d="M38.738 24a2.93 2.93 0 01-.864 2.081l-6.26 6.244a2.957 2.957 0 01-4.174 0l-2.658-2.651-.042-.04a1.107 1.107 0 00-1.519.037l-2.661 2.654a2.957 2.957 0 01-4.174 0l-6.26-6.244A2.93 2.93 0 019.262 24c0-.753.288-1.507.864-2.081l6.26-6.244a2.957 2.957 0 014.174 0l2.661 2.654a1.107 1.107 0 001.52.036l.04-.039 2.66-2.651a2.957 2.957 0 014.173 0l6.26 6.244A2.93 2.93 0 0138.738 24zm-14.883 0a.982.982 0 00-.29-.698l-2.65-2.643-.007-.007-1.742-1.737a.981.981 0 00-1.386 0l-4.4 4.387a.982.982 0 000 1.396l4.4 4.387a.981.981 0 001.386 0l1.742-1.737.008-.007 2.65-2.643a.982.982 0 00.289-.698zm3.83 0a2.93 2.93 0 01-.865 2.081l-.596.595c.31.183.602.407.868.673l1.741 1.736a.981.981 0 001.387 0l4.399-4.387a.982.982 0 000-1.396l-4.399-4.387a.981.981 0 00-1.387 0l-1.74 1.736c-.267.266-.56.49-.869.673l.596.595A2.93 2.93 0 0127.685 24z"/></svg>
