<svg width="128" height="128" viewBox="0 0 128 128" fill="none" xmlns="http://www.w3.org/2000/svg">
<g clip-path="url(#clip0_484_496)">
<mask id="mask0_484_496" style="mask-type:luminance" maskUnits="userSpaceOnUse" x="0" y="0" width="128" height="128">
<path d="M128 0H0V128H128V0Z" fill="white"/>
</mask>
<g mask="url(#mask0_484_496)">
<path d="M115.069 66.9205C115.069 67.7455 115.048 68.57 115.008 69.3941C114.966 70.2181 114.905 71.0407 114.824 71.8618C114.742 72.6828 114.639 73.5014 114.517 74.3176C114.395 75.1336 114.252 75.9463 114.089 76.7555C113.925 77.5647 113.742 78.3694 113.54 79.1698C113.337 79.97 113.115 80.7649 112.873 81.5545C112.63 82.344 112.369 83.1272 112.087 83.904C111.806 84.6808 111.506 85.4504 111.187 86.2127C110.867 86.9749 110.529 87.7289 110.172 88.4747C109.815 89.2205 109.44 89.9572 109.046 90.6849C108.653 91.4125 108.241 92.1303 107.812 92.8382C107.383 93.5457 106.937 94.2423 106.473 94.9281C106.01 95.6143 105.529 96.2888 105.032 96.9517C104.535 97.614 104.021 98.2642 103.491 98.9022C102.962 99.5396 102.417 100.164 101.856 100.776C101.296 101.387 100.72 101.984 100.13 102.568C99.5396 103.151 98.9354 103.72 98.3172 104.274C97.6985 104.828 97.0667 105.367 96.4216 105.89C95.776 106.414 95.1183 106.921 94.4483 107.413C93.7779 107.904 93.0954 108.379 92.401 108.837C91.7072 109.296 91.0022 109.737 90.286 110.161C89.5702 110.585 88.8442 110.992 88.1081 111.381C87.372 111.77 86.6266 112.141 85.872 112.493C85.1174 112.846 84.3546 113.18 83.5834 113.496C82.8122 113.812 82.0336 114.109 81.2477 114.386C80.4618 114.664 79.6694 114.923 78.8707 115.163C78.0719 115.402 77.2677 115.622 76.458 115.823C75.6483 116.023 74.8341 116.204 74.0154 116.365C73.1968 116.525 72.3746 116.666 71.5489 116.787C70.7232 116.909 69.895 117.01 69.0643 117.09C68.2336 117.172 67.4014 117.232 66.5677 117.272C65.734 117.313 64.8999 117.333 64.0652 117.333C63.2305 117.333 62.3963 117.313 61.5626 117.272C60.7289 117.232 59.8966 117.172 59.0659 117.09C58.2352 117.01 57.4071 116.909 56.5814 116.787C55.7557 116.666 54.9335 116.525 54.1149 116.365C53.2962 116.204 52.482 116.023 51.6723 115.823C50.8626 115.622 50.0584 115.402 49.2596 115.163C48.4609 114.923 47.6685 114.664 46.8826 114.386C46.0967 114.109 45.3181 113.812 44.5469 113.496C43.7757 113.18 43.0128 112.846 42.2583 112.493C41.5037 112.141 40.7584 111.77 40.0222 111.381C39.2861 110.992 38.56 110.585 37.8441 110.161C37.1282 109.737 36.4232 109.296 35.7291 108.837C35.035 108.379 34.3528 107.904 33.6824 107.413C33.0119 106.921 32.3541 106.414 31.7088 105.89C31.0636 105.367 30.4317 104.828 29.8132 104.274C29.1947 103.72 28.5904 103.151 28.0002 102.568C27.41 101.985 26.8346 101.387 26.274 100.776C25.7135 100.164 25.1684 99.5396 24.6389 98.9022C24.1093 98.2642 23.5959 97.614 23.0987 96.9517C22.6015 96.2888 22.121 95.6143 21.6573 94.9281C21.1935 94.2423 20.7471 93.5457 20.318 92.8382C19.8888 92.1302 19.4775 91.4125 19.084 90.6849C18.6906 89.9572 18.3154 89.2205 17.9585 88.4747C17.6016 87.7289 17.2635 86.9749 16.944 86.2127C16.6246 85.4504 16.3243 84.6808 16.0431 83.904C15.7619 83.1272 15.5001 82.344 15.2578 81.5545C15.0155 80.7649 14.7929 79.97 14.5901 79.1698C14.3873 78.3694 14.2045 77.5647 14.0416 76.7555C13.8788 75.9463 13.7361 75.1336 13.6137 74.3176C13.4912 73.5014 13.389 72.6828 13.3072 71.8618C13.2254 71.0407 13.164 70.2181 13.1231 69.3941C13.0821 68.57 13.0616 67.7455 13.0616 66.9205C13.0616 66.0954 13.0821 65.2708 13.1231 64.4468C13.164 63.6227 13.2254 62.8001 13.3072 61.9791C13.389 61.158 13.4912 60.3394 13.6137 59.5233C13.7361 58.7071 13.8788 57.8945 14.0416 57.0853C14.2045 56.2761 14.3873 55.4713 14.5901 54.6711C14.7929 53.8707 15.0155 53.0758 15.2578 52.2863C15.5001 51.4967 15.7619 50.7136 16.0431 49.9368C16.3243 49.16 16.6246 48.3905 16.944 47.6283C17.2635 46.866 17.6016 46.1119 17.9585 45.3661C18.3154 44.6203 18.6906 43.8836 19.084 43.156C19.4775 42.4283 19.8888 41.7106 20.318 41.003C20.7471 40.2953 21.1935 39.5985 21.6573 38.9125C22.121 38.2265 22.6015 37.5521 23.0987 36.8894C23.5959 36.2268 24.1093 35.5766 24.6389 34.9388C25.1684 34.301 25.7135 33.6765 26.274 33.0651C26.8346 32.4538 27.41 31.8565 28.0002 31.2731C28.5904 30.6897 29.1947 30.1209 29.8132 29.5669C30.4317 29.0128 31.0636 28.4741 31.7088 27.9507C32.3541 27.4273 33.0119 26.9198 33.6824 26.4284C34.3528 25.9369 35.035 25.462 35.7291 25.0036C36.4232 24.5452 37.1282 24.1039 37.8441 23.6798C38.56 23.2556 39.2861 22.8491 40.0222 22.4602C40.7584 22.0712 41.5037 21.7004 42.2583 21.3477C43.0128 20.9949 43.7757 20.6607 44.5469 20.3449C45.3181 20.0292 46.0967 19.7324 46.8826 19.4544C47.6685 19.1765 48.4609 18.9177 49.2596 18.6782C50.0584 18.4387 50.8626 18.2188 51.6723 18.0183C52.482 17.8178 53.2962 17.6371 54.1149 17.4761C54.9335 17.3152 55.7557 17.1742 56.5814 17.0531C57.4071 16.9321 58.2352 16.8311 59.0659 16.7502C59.8966 16.6694 60.7289 16.6087 61.5626 16.5682C62.3963 16.5277 63.2305 16.5075 64.0652 16.5075C64.8999 16.5075 65.734 16.5277 66.5677 16.5682C67.4014 16.6087 68.2336 16.6694 69.0643 16.7502C69.895 16.8311 70.7232 16.9321 71.5489 17.0531C72.3746 17.1742 73.1968 17.3152 74.0154 17.4761C74.8341 17.6371 75.6483 17.8178 76.458 18.0183C77.2677 18.2188 78.0719 18.4387 78.8707 18.6782C79.6694 18.9177 80.4618 19.1765 81.2477 19.4544C82.0336 19.7324 82.8122 20.0292 83.5834 20.3449C84.3546 20.6607 85.1174 20.9949 85.872 21.3477C86.6266 21.7004 87.372 22.0712 88.1081 22.4602C88.8442 22.8491 89.5702 23.2556 90.286 23.6798C91.0022 24.1039 91.7072 24.5452 92.401 25.0036C93.0954 25.462 93.7779 25.9369 94.4483 26.4284C95.1183 26.9198 95.776 27.4273 96.4216 27.9507C97.0667 28.4741 97.6985 29.0128 98.3172 29.5669C98.9354 30.1209 99.5396 30.6897 100.13 31.2731C100.72 31.8565 101.296 32.4538 101.856 33.0651C102.417 33.6765 102.962 34.301 103.491 34.9388C104.021 35.5766 104.535 36.2268 105.032 36.8894C105.529 37.5521 106.01 38.2265 106.473 38.9125C106.937 39.5985 107.383 40.2953 107.812 41.003C108.241 41.7106 108.653 42.4283 109.046 43.156C109.44 43.8836 109.815 44.6203 110.172 45.3661C110.529 46.1119 110.867 46.866 111.187 47.6283C111.506 48.3905 111.806 49.16 112.087 49.9368C112.369 50.7136 112.63 51.4967 112.873 52.2863C113.115 53.0758 113.337 53.8707 113.54 54.6711C113.742 55.4713 113.925 56.2761 114.089 57.0853C114.252 57.8945 114.395 58.7072 114.517 59.5234C114.639 60.3394 114.742 61.158 114.824 61.9791C114.905 62.8001 114.966 63.6227 115.008 64.4468C115.048 65.2708 115.069 66.0954 115.069 66.9205Z" fill="#EAEEF9"/>
<path d="M103.134 60.3411V91.1869C103.134 97.5954 97.8957 102.808 91.3701 102.808H36.9319C30.4921 102.808 25.2544 97.6808 25.1685 91.2724C25.1685 91.1869 25.1685 91.1869 25.1685 91.1015V60.3411C25.1685 60.2557 25.1685 60.2557 25.1685 60.1702C25.1685 59.9993 25.1685 59.8284 25.2544 59.6575C25.3402 59.4012 25.4261 59.2303 25.512 58.9739L40.1089 31.2041C40.6241 30.0933 41.7404 29.4952 42.9424 29.4952H85.2737C86.4758 29.4952 87.5062 30.0933 88.1072 31.2041L102.705 58.9739C102.79 59.1448 102.876 59.4012 102.962 59.6575C103.134 59.8284 103.134 60.0848 103.134 60.3411Z" fill="#D5DDEA"/>
<g filter="url(#filter0_d_484_496)">
<path d="M103.134 60.3411V94.3484C103.134 99.0479 99.3555 102.808 94.5471 102.808H33.755C29.0324 102.808 25.1685 99.0479 25.1685 94.3484V60.1702C25.1685 59.9993 25.1685 59.8284 25.2544 59.6575H44.8315C47.7509 59.6575 50.1551 61.9646 50.1551 64.9552C50.1551 66.4077 50.7562 67.7749 51.7006 68.7148C52.731 69.7401 53.9331 70.2528 55.4787 70.2528H72.9092C75.8286 70.2528 78.2328 67.9458 78.2328 64.9552C78.2328 63.5026 78.8339 62.1355 79.7783 61.1956C80.8087 60.1702 82.0109 59.6575 83.4705 59.6575H102.962C103.134 59.8284 103.134 60.0848 103.134 60.3411Z" fill="url(#paint0_linear_484_496)"/>
</g>
<path d="M113.765 42.8248C115.709 42.8248 117.286 41.2525 117.286 39.3215C117.286 37.3904 115.709 35.8182 113.765 35.8182C111.82 35.8182 110.245 37.3904 110.245 39.3215C110.245 41.2525 111.82 42.8248 113.765 42.8248Z" fill="#EAEEF9"/>
<path d="M110.245 31.4605C111.572 31.4605 112.649 30.3924 112.649 29.068C112.649 27.7436 111.572 26.6755 110.245 26.6755C108.916 26.6755 107.841 27.7436 107.841 29.068C107.841 30.3924 108.916 31.4605 110.245 31.4605Z" fill="#EAEEF9"/>
<path d="M12.8744 39.3215C14.2019 39.3215 15.2786 38.2534 15.2786 36.929C15.2786 35.6046 14.2019 34.5365 12.8744 34.5365C11.5461 34.5365 10.4702 35.6046 10.4702 36.929C10.4702 38.2534 11.5461 39.3215 12.8744 39.3215Z" fill="#EAEEF9"/>
<path d="M11.9299 87.5128C11.9299 87.5855 11.9281 87.6582 11.9246 87.7308C11.921 87.8035 11.9156 87.876 11.9084 87.9483C11.9013 88.0207 11.8923 88.0928 11.8816 88.1648C11.8709 88.2367 11.8584 88.3083 11.8441 88.3796C11.8298 88.451 11.8138 88.5219 11.7961 88.5924C11.7783 88.663 11.7589 88.733 11.7377 88.8026C11.7164 88.8722 11.6935 88.9412 11.6689 89.0097C11.6443 89.0781 11.618 89.146 11.59 89.2131C11.5621 89.2803 11.5325 89.3468 11.5013 89.4125C11.47 89.4783 11.4372 89.5432 11.4027 89.6073C11.3682 89.6714 11.3322 89.7347 11.2947 89.7971C11.2571 89.8594 11.218 89.9208 11.1775 89.9813C11.1369 90.0418 11.0948 90.1012 11.0513 90.1596C11.0077 90.218 10.9628 90.2753 10.9164 90.3315C10.87 90.3877 10.8223 90.4428 10.7733 90.4967C10.7242 90.5505 10.6738 90.6032 10.6222 90.6546C10.5705 90.706 10.5176 90.7561 10.4634 90.805C10.4093 90.8538 10.354 90.9013 10.2975 90.9474C10.241 90.9936 10.1834 91.0383 10.1247 91.0816C10.066 91.1249 10.0063 91.1668 9.94555 91.2072C9.88479 91.2475 9.82307 91.2864 9.7604 91.3238C9.69772 91.3612 9.63416 91.397 9.56972 91.4313C9.50528 91.4656 9.44003 91.4983 9.37397 91.5294C9.30792 91.5605 9.24113 91.5899 9.17362 91.6178C9.10611 91.6456 9.03796 91.6717 8.96916 91.6962C8.90035 91.7208 8.83099 91.7436 8.76107 91.7646C8.69114 91.7858 8.62074 91.8052 8.54985 91.8229C8.47897 91.8405 8.40769 91.8564 8.33602 91.8706C8.26436 91.8848 8.19239 91.8972 8.1201 91.9079C8.04782 91.9186 7.97532 91.9274 7.9026 91.9346C7.82988 91.9417 7.75703 91.9471 7.68404 91.9506C7.61106 91.9542 7.53803 91.956 7.46496 91.956C7.39188 91.956 7.31885 91.9542 7.24587 91.9506C7.17289 91.9471 7.10004 91.9417 7.02731 91.9346C6.95459 91.9274 6.88209 91.9186 6.80981 91.9079C6.73753 91.8972 6.66556 91.8848 6.59389 91.8706C6.52222 91.8564 6.45094 91.8405 6.38006 91.8229C6.30918 91.8052 6.23878 91.7858 6.16885 91.7646C6.09892 91.7436 6.02956 91.7208 5.96075 91.6962C5.89195 91.6717 5.8238 91.6456 5.75629 91.6178C5.68878 91.5899 5.622 91.5605 5.55594 91.5294C5.48988 91.4983 5.42463 91.4656 5.36019 91.4313C5.29575 91.397 5.23219 91.3612 5.16951 91.3238C5.10684 91.2864 5.04512 91.2475 4.98436 91.2072C4.92361 91.1668 4.86388 91.1249 4.80519 91.0816C4.74649 91.0383 4.6889 90.9936 4.63242 90.9474C4.57593 90.9013 4.52062 90.8538 4.46648 90.805C4.41233 90.7561 4.35943 90.706 4.30776 90.6546C4.25609 90.6032 4.20571 90.5505 4.15664 90.4967C4.10757 90.4428 4.05985 90.3877 4.0135 90.3315C3.96714 90.2753 3.9222 90.218 3.87867 90.1596C3.83514 90.1012 3.79308 90.0418 3.75248 89.9813C3.71188 89.9208 3.6728 89.8594 3.63524 89.7971C3.59767 89.7347 3.56166 89.6714 3.52722 89.6073C3.49277 89.5432 3.45993 89.4783 3.42868 89.4125C3.39744 89.3468 3.36784 89.2803 3.33987 89.2131C3.31191 89.146 3.28562 89.0781 3.261 89.0097C3.23639 88.9412 3.21347 88.8722 3.19226 88.8026C3.17105 88.733 3.15156 88.663 3.13381 88.5924C3.11605 88.5219 3.10005 88.451 3.08579 88.3796C3.07154 88.3083 3.05905 88.2367 3.04833 88.1648C3.0376 88.0928 3.02866 88.0207 3.0215 87.9483C3.01434 87.876 3.00896 87.8035 3.00538 87.7308C3.00179 87.6582 3 87.5855 3 87.5128C3 87.4401 3.00179 87.3674 3.00538 87.2948C3.00896 87.2222 3.01434 87.1497 3.0215 87.0773C3.02866 87.0049 3.0376 86.9328 3.04833 86.8609C3.05905 86.7889 3.07154 86.7173 3.08579 86.646C3.10005 86.5747 3.11605 86.5037 3.13381 86.4332C3.15156 86.3627 3.17105 86.2926 3.19226 86.223C3.21347 86.1534 3.23639 86.0844 3.261 86.016C3.28562 85.9475 3.31191 85.8797 3.33987 85.8125C3.36784 85.7453 3.39744 85.6788 3.42868 85.6131C3.45993 85.5474 3.49277 85.4824 3.52722 85.4183C3.56166 85.3542 3.59767 85.2909 3.63524 85.2286C3.6728 85.1662 3.71188 85.1048 3.75248 85.0443C3.79308 84.9839 3.83514 84.9244 3.87867 84.866C3.9222 84.8076 3.96714 84.7503 4.0135 84.6941C4.05985 84.6379 4.10757 84.5828 4.15664 84.529C4.20571 84.4751 4.25609 84.4224 4.30776 84.371C4.35943 84.3196 4.41233 84.2695 4.46648 84.2206C4.52062 84.1718 4.57593 84.1243 4.63242 84.0782C4.6889 84.0321 4.74649 83.9873 4.80519 83.944C4.86388 83.9007 4.92361 83.8589 4.98436 83.8185C5.04512 83.7781 5.10684 83.7392 5.16951 83.7018C5.23219 83.6644 5.29575 83.6286 5.36019 83.5943C5.42463 83.56 5.48988 83.5273 5.55594 83.4962C5.622 83.4651 5.68878 83.4357 5.75629 83.4079C5.8238 83.38 5.89195 83.3539 5.96075 83.3294C6.02956 83.3049 6.09892 83.2821 6.16885 83.261C6.23878 83.2399 6.30918 83.2205 6.38006 83.2028C6.45094 83.1851 6.52222 83.1692 6.59389 83.155C6.66556 83.1408 6.73753 83.1284 6.80981 83.1177C6.88209 83.1071 6.95459 83.0982 7.02731 83.091C7.10004 83.0839 7.17289 83.0786 7.24587 83.075C7.31885 83.0714 7.39188 83.0696 7.46496 83.0696C7.53803 83.0696 7.61106 83.0714 7.68404 83.075C7.75703 83.0786 7.82988 83.0839 7.9026 83.091C7.97532 83.0982 8.04782 83.1071 8.1201 83.1177C8.19239 83.1284 8.26436 83.1408 8.33602 83.155C8.40769 83.1692 8.47897 83.1851 8.54985 83.2028C8.62074 83.2205 8.69114 83.2399 8.76107 83.261C8.83099 83.2821 8.90035 83.3049 8.96915 83.3294C9.03796 83.3539 9.10611 83.38 9.17362 83.4079C9.24113 83.4357 9.30792 83.4651 9.37397 83.4962C9.44002 83.5273 9.50527 83.56 9.56972 83.5943C9.63416 83.6286 9.69772 83.6644 9.7604 83.7018C9.82307 83.7392 9.88479 83.7781 9.94555 83.8185C10.0063 83.8589 10.066 83.9007 10.1247 83.944C10.1834 83.9873 10.241 84.0321 10.2975 84.0782C10.354 84.1243 10.4093 84.1718 10.4634 84.2206C10.5176 84.2695 10.5705 84.3196 10.6222 84.371C10.6738 84.4224 10.7242 84.4751 10.7733 84.529C10.8223 84.5828 10.87 84.6379 10.9164 84.6941C10.9628 84.7503 11.0077 84.8076 11.0513 84.866C11.0948 84.9244 11.1369 84.9839 11.1775 85.0443C11.218 85.1048 11.2571 85.1662 11.2947 85.2286C11.3322 85.2909 11.3682 85.3542 11.4027 85.4183C11.4372 85.4824 11.47 85.5474 11.5013 85.6131C11.5325 85.6788 11.5621 85.7453 11.59 85.8125C11.618 85.8797 11.6443 85.9475 11.6689 86.016C11.6935 86.0844 11.7164 86.1534 11.7377 86.223C11.7589 86.2926 11.7783 86.3627 11.7961 86.4332C11.8138 86.5037 11.8298 86.5747 11.8441 86.646C11.8584 86.7173 11.8709 86.7889 11.8816 86.8609C11.8923 86.9328 11.9013 87.0049 11.9084 87.0773C11.9156 87.1497 11.921 87.2222 11.9246 87.2948C11.9281 87.3674 11.9299 87.4401 11.9299 87.5128Z" fill="#EAEEF9"/>
<path fill-rule="evenodd" clip-rule="evenodd" d="M86.5459 20.7899L86.393 19.1456L84.8757 19.2867L85.0286 20.931L86.5459 20.7899ZM87.0993 26.9275L86.8318 23.8442L85.3137 23.9759L85.5812 27.0593L87.0993 26.9275ZM87.3299 33.2102C87.3523 32.2632 87.3424 31.2565 87.3002 30.1902L85.7777 30.2504C85.8185 31.2847 85.8281 32.2593 85.8065 33.1742L87.3299 33.2102ZM86.7124 39.4844C86.8959 38.3701 87.0376 37.3141 87.1374 36.3165L85.6212 36.1649C85.5246 37.1304 85.3871 38.1543 85.2088 39.2367L86.7124 39.4844ZM70.7908 39.0945C69.6406 38.75 68.4853 38.6925 67.325 38.922L67.6207 40.4168C68.5339 40.2362 69.4448 40.282 70.3536 40.5542L70.7908 39.0945ZM64.2007 40.6034C63.412 41.4428 62.857 42.4557 62.5356 43.642L64.0064 44.0405C64.2614 43.0992 64.6964 42.3013 65.3113 41.6468L64.2007 40.6034ZM75.694 43.6786C75.2296 42.5917 74.5827 41.6577 73.7533 40.8767L72.7087 41.9861C73.3836 42.6217 73.9116 43.3854 74.2928 44.2773L75.694 43.6786ZM85.5199 45.371C85.752 44.3627 85.957 43.428 86.1349 42.5671L84.6426 42.2588C84.4692 43.0982 84.2694 44.0096 84.0433 44.9931L83.9502 45.2704L85.3949 45.755L85.5116 45.4072L85.5199 45.371ZM62.4612 47.4579C62.6356 48.4238 62.9384 49.3551 63.3695 50.2518L64.7429 49.5916C64.3686 48.8131 64.1068 48.0053 63.9574 47.1683L63.9534 47.1461L63.9482 47.1242C63.9231 47.0199 63.9009 46.9144 63.8815 46.8077L62.3823 47.0801C62.4054 47.2072 62.4317 47.3332 62.4612 47.4579ZM76.4626 48.1575C76.4811 47.7557 76.478 47.3565 76.4534 46.96L74.9326 47.0546C74.9538 47.3963 74.9564 47.7405 74.9405 48.0873C74.9125 48.6962 74.8344 49.3186 74.7063 49.9543L76.2001 50.2554C76.3436 49.5433 76.4311 48.844 76.4626 48.1575ZM82.7775 51.6678C83.3355 50.8756 83.8515 49.9002 84.3253 48.7415L82.915 48.1648C82.4846 49.2169 82.0235 50.092 81.5317 50.7902L82.7775 51.6678ZM65.2465 53.0149C66.0173 53.8516 66.8867 54.5501 67.8547 55.1103L68.618 53.7915C67.7837 53.3086 67.0334 52.7056 66.3672 51.9825L65.2465 53.0149ZM74.2318 55.4535C74.6088 54.7763 74.9415 54.0898 75.2301 53.394L73.8225 52.8103C73.5158 53.5499 73.1543 54.2792 72.7381 54.9981C72.2476 54.9745 71.7676 54.9136 71.2982 54.8155L70.9863 56.3071C72.0585 56.5313 73.1728 56.5886 74.329 56.4791L74.2318 55.4535ZM77.5719 55.7179C78.6511 55.3038 79.6239 54.7591 80.4903 54.084L79.5537 52.882C78.8066 53.4642 77.964 53.9353 77.026 54.2952L77.5719 55.7179ZM70.2664 61.5164C71.0378 60.5345 71.6603 59.6914 72.1339 58.987L70.8694 58.1368C70.4168 58.81 69.8164 59.6227 69.0682 60.575L70.2664 61.5164ZM66.5367 66.3966C67.1424 65.5575 67.7543 64.736 68.3723 63.932L67.1642 63.0033C66.5368 63.8195 65.9158 64.6533 65.3012 65.5047L66.5367 66.3966ZM63.8382 70.2871L64.7719 68.9086L63.5102 68.0541L62.5765 69.4324L63.8382 70.2871Z" fill="#ABB5CC"/>
<path d="M92.2056 14.679C91.7574 16.311 89.9654 16.9006 88.1734 15.8667C86.232 14.978 84.8882 14.2346 85.1861 12.7564C85.6343 11.2782 87.4263 11.133 89.5171 10.9877C92.0562 10.6887 92.5044 13.0555 92.2056 14.679Z" fill="#DAE2EB"/>
<path d="M77.7193 16.1572C78.4663 17.4901 80.5571 18.3788 82.0503 17.0458C83.6929 15.5676 85.0367 14.5337 84.2905 13.0555C83.5435 11.7225 82.3491 12.1669 79.8101 12.4659C77.7193 12.9102 76.8229 14.679 77.7193 16.1572Z" fill="#DAE2EB"/>
<path d="M84.2905 10.6886C85.3355 10.5434 86.3813 11.1329 86.6801 12.0216C86.8296 12.3121 86.979 12.7564 86.979 13.0555C87.2769 15.1233 86.5307 16.9005 85.3355 17.0458C83.9917 17.3448 82.6479 15.8666 82.4985 13.9441C82.4985 13.346 82.4985 13.0555 82.4985 12.6112C82.6479 11.5773 83.2447 10.8339 84.2905 10.6886C84.3901 10.6886 84.3901 10.6886 84.2905 10.6886Z" fill="#989FB0"/>
<path d="M54.3539 82.5228C55.4418 82.5228 56.3236 81.6427 56.3236 80.5575C56.3236 79.4809 55.4418 78.6008 54.3539 78.6008C53.266 78.6008 52.3842 79.4809 52.3842 80.5575C52.3842 81.6427 53.266 82.5228 54.3539 82.5228Z" fill="#989FB0"/>
<path d="M73.9473 82.5228C75.0352 82.5228 75.917 81.6427 75.917 80.5575C75.917 79.4809 75.0352 78.6008 73.9473 78.6008C72.8594 78.6008 71.9776 79.4809 71.9776 80.5575C71.9776 81.6427 72.8594 82.5228 73.9473 82.5228Z" fill="#989FB0"/>
<path d="M67.3452 95.3994H61.169C60.2107 95.3994 59.4122 94.6048 59.4122 93.6478C59.4122 92.6908 60.2107 91.8961 61.169 91.8961H67.2919C68.2502 91.8961 69.0487 92.6908 69.0487 93.6478C69.102 94.6048 68.3034 95.3994 67.3452 95.3994Z" fill="#989FB0"/>
</g>
</g>
<defs>
<filter id="filter0_d_484_496" x="16.1685" y="55.6575" width="95.965" height="61.15" filterUnits="userSpaceOnUse" color-interpolation-filters="sRGB">
<feFlood flood-opacity="0" result="BackgroundImageFix"/>
<feColorMatrix in="SourceAlpha" type="matrix" values="0 0 0 0 0 0 0 0 0 0 0 0 0 0 0 0 0 0 127 0" result="hardAlpha"/>
<feOffset dy="5"/>
<feGaussianBlur stdDeviation="4.5"/>
<feColorMatrix type="matrix" values="0 0 0 0 0.396078 0 0 0 0 0.478431 0 0 0 0 0.576471 0 0 0 0.27 0"/>
<feBlend mode="normal" in2="BackgroundImageFix" result="effect1_dropShadow_484_496"/>
<feBlend mode="normal" in="SourceGraphic" in2="effect1_dropShadow_484_496" result="shape"/>
</filter>
<linearGradient id="paint0_linear_484_496" x1="64.1264" y1="58.658" x2="64.1264" y2="103.272" gradientUnits="userSpaceOnUse">
<stop stop-color="#FDFEFF"/>
<stop offset="0.9964" stop-color="#ECF0F5"/>
</linearGradient>
<clipPath id="clip0_484_496">
<rect width="128" height="128" fill="white"/>
</clipPath>
</defs>
</svg>
