<svg width="128" height="128" viewBox="0 0 128 128" fill="none" xmlns="http://www.w3.org/2000/svg">
<g clip-path="url(#clip0_484_686)">
<mask id="mask0_484_686" style="mask-type:luminance" maskUnits="userSpaceOnUse" x="0" y="0" width="128" height="128">
<path d="M128 0H0V128H128V0Z" fill="white"/>
</mask>
<g mask="url(#mask0_484_686)">
<path d="M67.1336 117.333C95.4659 117.333 118.435 94.4264 118.435 66.0697C118.435 37.7123 95.3646 14.8051 67.1336 14.8051C38.8015 14.8051 15.8324 37.7123 15.8324 66.0697C15.8324 94.4264 38.8015 117.333 67.1336 117.333Z" fill="#EAEEF9"/>
<path d="M119.244 28.3264C119.244 28.3941 119.243 28.4618 119.239 28.5294C119.236 28.597 119.231 28.6645 119.224 28.7319C119.218 28.7993 119.209 28.8665 119.199 28.9335C119.189 29.0004 119.178 29.0671 119.165 29.1336C119.151 29.2 119.136 29.266 119.12 29.3317C119.103 29.3974 119.085 29.4626 119.066 29.5274C119.046 29.5922 119.025 29.6565 119.002 29.7202C118.979 29.784 118.954 29.8471 118.928 29.9097C118.902 29.9723 118.875 30.0341 118.846 30.0954C118.817 30.1566 118.786 30.217 118.754 30.2767C118.722 30.3365 118.689 30.3954 118.654 30.4534C118.619 30.5115 118.583 30.5687 118.545 30.625C118.507 30.6813 118.468 30.7367 118.428 30.791C118.387 30.8454 118.346 30.8988 118.303 30.9511C118.259 31.0035 118.215 31.0547 118.17 31.1049C118.124 31.1551 118.077 31.2041 118.029 31.252C117.981 31.2999 117.932 31.3465 117.882 31.392C117.831 31.4375 117.78 31.4817 117.727 31.5247C117.675 31.5676 117.621 31.6092 117.567 31.6496C117.512 31.6899 117.457 31.7289 117.4 31.7665C117.344 31.8041 117.287 31.8403 117.228 31.8751C117.17 31.91 117.111 31.9434 117.051 31.9753C116.991 32.0072 116.931 32.0376 116.869 32.0665C116.808 32.0955 116.746 32.1229 116.683 32.1489C116.621 32.1748 116.557 32.1991 116.493 32.222C116.429 32.2448 116.365 32.266 116.3 32.2857C116.235 32.3053 116.17 32.3234 116.104 32.3398C116.038 32.3563 115.972 32.3711 115.905 32.3843C115.838 32.3975 115.772 32.4091 115.704 32.419C115.637 32.4289 115.57 32.4372 115.502 32.4439C115.435 32.4505 115.367 32.4555 115.299 32.4588C115.231 32.4621 115.164 32.4638 115.096 32.4638C115.028 32.4638 114.96 32.4621 114.892 32.4588C114.824 32.4555 114.757 32.4505 114.689 32.4439C114.621 32.4372 114.554 32.4289 114.487 32.419C114.42 32.4091 114.353 32.3975 114.286 32.3843C114.22 32.3711 114.153 32.3563 114.088 32.3398C114.022 32.3234 113.956 32.3053 113.891 32.2857C113.826 32.266 113.762 32.2448 113.698 32.222C113.634 32.1991 113.571 32.1748 113.508 32.1489C113.445 32.1229 113.383 32.0955 113.322 32.0665C113.26 32.0376 113.2 32.0072 113.14 31.9753C113.08 31.9434 113.021 31.91 112.963 31.8751C112.905 31.8403 112.847 31.8041 112.791 31.7665C112.734 31.7289 112.679 31.6899 112.624 31.6496C112.57 31.6092 112.516 31.5676 112.464 31.5247C112.411 31.4817 112.36 31.4375 112.31 31.392C112.259 31.3465 112.21 31.2999 112.162 31.252C112.114 31.2041 112.067 31.1551 112.022 31.1049C111.976 31.0547 111.932 31.0035 111.889 30.9511C111.846 30.8988 111.804 30.8454 111.763 30.791C111.723 30.7367 111.684 30.6813 111.646 30.625C111.608 30.5687 111.572 30.5115 111.537 30.4534C111.502 30.3954 111.469 30.3365 111.437 30.2767C111.405 30.217 111.374 30.1566 111.345 30.0954C111.316 30.0341 111.289 29.9723 111.263 29.9097C111.237 29.8471 111.212 29.784 111.19 29.7202C111.167 29.6565 111.145 29.5922 111.126 29.5274C111.106 29.4626 111.088 29.3974 111.071 29.3317C111.055 29.266 111.04 29.2 111.027 29.1336C111.013 29.0671 111.002 29.0004 110.992 28.9335C110.982 28.8665 110.974 28.7993 110.967 28.7319C110.96 28.6645 110.955 28.597 110.952 28.5294C110.949 28.4618 110.947 28.3941 110.947 28.3264C110.947 28.2587 110.949 28.191 110.952 28.1234C110.955 28.0557 110.96 27.9882 110.967 27.9208C110.974 27.8535 110.982 27.7863 110.992 27.7193C111.002 27.6523 111.013 27.5856 111.027 27.5192C111.04 27.4528 111.055 27.3868 111.071 27.3211C111.088 27.2554 111.106 27.1901 111.126 27.1254C111.145 27.0606 111.167 26.9963 111.19 26.9325C111.212 26.8688 111.237 26.8056 111.263 26.7431C111.289 26.6805 111.316 26.6186 111.345 26.5574C111.374 26.4962 111.405 26.4357 111.437 26.376C111.469 26.3163 111.502 26.2574 111.537 26.1993C111.572 26.1413 111.608 26.0841 111.646 26.0278C111.684 25.9715 111.723 25.9161 111.763 25.8617C111.804 25.8073 111.846 25.754 111.889 25.7016C111.932 25.6493 111.976 25.598 112.022 25.5479C112.067 25.4977 112.114 25.4487 112.162 25.4008C112.21 25.3529 112.259 25.3062 112.31 25.2608C112.36 25.2153 112.411 25.1711 112.464 25.1281C112.516 25.0852 112.57 25.0435 112.624 25.0032C112.679 24.9628 112.734 24.9239 112.791 24.8862C112.847 24.8486 112.905 24.8124 112.963 24.7776C113.021 24.7428 113.08 24.7094 113.14 24.6775C113.2 24.6456 113.26 24.6152 113.322 24.5862C113.383 24.5573 113.445 24.5298 113.508 24.5039C113.571 24.478 113.634 24.4536 113.698 24.4308C113.762 24.408 113.826 24.3868 113.891 24.3671C113.956 24.3475 114.022 24.3294 114.088 24.313C114.153 24.2965 114.22 24.2817 114.286 24.2685C114.353 24.2553 114.42 24.2437 114.487 24.2337C114.554 24.2238 114.621 24.2155 114.689 24.2089C114.757 24.2023 114.824 24.1973 114.892 24.1939C114.96 24.1906 115.028 24.189 115.096 24.189C115.164 24.189 115.231 24.1906 115.299 24.1939C115.367 24.1973 115.435 24.2023 115.502 24.2089C115.57 24.2155 115.637 24.2238 115.704 24.2337C115.772 24.2437 115.838 24.2553 115.905 24.2685C115.972 24.2817 116.038 24.2965 116.104 24.313C116.17 24.3294 116.235 24.3475 116.3 24.3671C116.365 24.3868 116.429 24.408 116.493 24.4308C116.557 24.4536 116.621 24.478 116.683 24.5039C116.746 24.5298 116.808 24.5573 116.869 24.5862C116.931 24.6152 116.991 24.6456 117.051 24.6775C117.111 24.7094 117.17 24.7428 117.228 24.7776C117.287 24.8124 117.344 24.8486 117.4 24.8862C117.457 24.9239 117.512 24.9628 117.567 25.0032C117.621 25.0435 117.675 25.0852 117.727 25.1281C117.78 25.1711 117.831 25.2153 117.882 25.2608C117.932 25.3062 117.981 25.3529 118.029 25.4008C118.077 25.4487 118.124 25.4977 118.17 25.5479C118.215 25.598 118.259 25.6493 118.303 25.7016C118.346 25.754 118.387 25.8073 118.428 25.8617C118.468 25.9161 118.507 25.9715 118.545 26.0278C118.583 26.0841 118.619 26.1412 118.654 26.1993C118.689 26.2574 118.722 26.3163 118.754 26.376C118.786 26.4357 118.817 26.4962 118.846 26.5574C118.875 26.6186 118.902 26.6805 118.928 26.7431C118.954 26.8056 118.979 26.8688 119.002 26.9325C119.025 26.9963 119.046 27.0606 119.066 27.1254C119.085 27.1901 119.103 27.2554 119.12 27.3211C119.136 27.3868 119.151 27.4528 119.165 27.5192C119.178 27.5856 119.189 27.6523 119.199 27.7193C119.209 27.7863 119.218 27.8535 119.224 27.9208C119.231 27.9882 119.236 28.0557 119.239 28.1234C119.243 28.191 119.244 28.2587 119.244 28.3264Z" fill="#EAEEF9"/>
<path d="M124 13.4922C124 13.5848 123.995 13.6771 123.986 13.7692C123.977 13.8613 123.964 13.9527 123.946 14.0435C123.927 14.1342 123.905 14.2239 123.878 14.3125C123.851 14.401 123.82 14.488 123.784 14.5735C123.749 14.659 123.709 14.7426 123.665 14.8242C123.622 14.9058 123.574 14.9851 123.523 15.062C123.471 15.139 123.416 15.2132 123.357 15.2848C123.298 15.3563 123.236 15.4248 123.17 15.4902C123.105 15.5556 123.036 15.6177 122.964 15.6764C122.892 15.7351 122.818 15.7902 122.741 15.8416C122.664 15.893 122.584 15.9405 122.502 15.9842C122.421 16.0278 122.337 16.0673 122.251 16.1027C122.165 16.1381 122.078 16.1693 121.989 16.1961C121.9 16.223 121.811 16.2455 121.72 16.2635C121.629 16.2816 121.537 16.2951 121.444 16.3042C121.352 16.3133 121.26 16.3178 121.167 16.3178C121.074 16.3178 120.981 16.3133 120.889 16.3042C120.797 16.2951 120.705 16.2816 120.614 16.2635C120.523 16.2455 120.433 16.223 120.344 16.1961C120.256 16.1693 120.168 16.1381 120.083 16.1027C119.997 16.0673 119.913 16.0278 119.831 15.9842C119.749 15.9405 119.67 15.893 119.593 15.8416C119.516 15.7902 119.441 15.7351 119.369 15.6764C119.298 15.6177 119.229 15.5556 119.163 15.4902C119.098 15.4248 119.036 15.3563 118.977 15.2848C118.918 15.2132 118.863 15.139 118.811 15.062C118.76 14.9851 118.712 14.9058 118.668 14.8242C118.624 14.7426 118.585 14.659 118.549 14.5735C118.514 14.488 118.483 14.401 118.456 14.3125C118.429 14.2239 118.406 14.1342 118.388 14.0435C118.37 13.9527 118.356 13.8613 118.347 13.7692C118.338 13.6771 118.334 13.5848 118.334 13.4922C118.334 13.3997 118.338 13.3074 118.347 13.2153C118.356 13.1232 118.37 13.0318 118.388 12.941C118.406 12.8502 118.429 12.7606 118.456 12.672C118.483 12.5835 118.514 12.4964 118.549 12.4109C118.585 12.3255 118.624 12.2419 118.668 12.1603C118.712 12.0787 118.76 11.9994 118.811 11.9224C118.863 11.8455 118.918 11.7713 118.977 11.6997C119.036 11.6282 119.098 11.5597 119.163 11.4943C119.229 11.4288 119.298 11.3668 119.369 11.3081C119.441 11.2494 119.516 11.1943 119.593 11.1429C119.67 11.0915 119.749 11.0439 119.831 11.0003C119.913 10.9567 119.997 10.9172 120.083 10.8818C120.168 10.8464 120.256 10.8152 120.344 10.7884C120.433 10.7615 120.523 10.739 120.614 10.721C120.705 10.7029 120.797 10.6894 120.889 10.6803C120.981 10.6712 121.074 10.6667 121.167 10.6667C121.26 10.6667 121.352 10.6712 121.444 10.6803C121.537 10.6894 121.629 10.7029 121.72 10.721C121.811 10.739 121.9 10.7615 121.989 10.7884C122.078 10.8152 122.165 10.8464 122.251 10.8818C122.337 10.9172 122.421 10.9567 122.502 11.0003C122.584 11.0439 122.664 11.0915 122.741 11.1429C122.818 11.1943 122.892 11.2494 122.964 11.3081C123.036 11.3668 123.105 11.4288 123.17 11.4943C123.236 11.5597 123.298 11.6282 123.357 11.6997C123.416 11.7713 123.471 11.8455 123.523 11.9224C123.574 11.9994 123.622 12.0787 123.665 12.1603C123.709 12.2419 123.749 12.3255 123.784 12.4109C123.82 12.4964 123.851 12.5835 123.878 12.672C123.905 12.7606 123.927 12.8502 123.946 12.941C123.964 13.0318 123.977 13.1232 123.986 13.2153C123.995 13.3074 124 13.3997 124 13.4922Z" fill="#EAEEF9"/>
<path d="M21.3976 29.5374C21.3976 29.6299 21.3931 29.7222 21.384 29.8143C21.3749 29.9064 21.3613 29.9978 21.3432 30.0886C21.3251 30.1793 21.3026 30.269 21.2756 30.3576C21.2487 30.4461 21.2175 30.5331 21.182 30.6186C21.1464 30.7041 21.1068 30.7877 21.0631 30.8693C21.0193 30.9509 20.9717 31.0302 20.9201 31.1071C20.8686 31.1841 20.8134 31.2583 20.7545 31.3299C20.6956 31.4014 20.6334 31.4699 20.5678 31.5353C20.5022 31.6008 20.4335 31.6628 20.3618 31.7215C20.2901 31.7802 20.2156 31.8353 20.1385 31.8867C20.0613 31.9381 19.9818 31.9856 19.9 32.0293C19.8181 32.0729 19.7344 32.1124 19.6486 32.1478C19.5629 32.1832 19.4756 32.2144 19.3868 32.2412C19.2981 32.2681 19.2082 32.2906 19.1171 32.3086C19.0261 32.3267 18.9345 32.3402 18.8421 32.3493C18.7498 32.3584 18.6572 32.3629 18.5644 32.3629C18.4716 32.3629 18.3791 32.3584 18.2867 32.3493C18.1944 32.3402 18.1027 32.3267 18.0117 32.3086C17.9207 32.2906 17.8308 32.2681 17.742 32.2412C17.6532 32.2144 17.5659 32.1832 17.4802 32.1478C17.3945 32.1124 17.3107 32.0729 17.2289 32.0293C17.147 31.9856 17.0675 31.9381 16.9904 31.8867C16.9132 31.8353 16.8388 31.7802 16.7671 31.7215C16.6953 31.6628 16.6267 31.6008 16.561 31.5353C16.4954 31.4699 16.4332 31.4014 16.3743 31.3299C16.3155 31.2583 16.2602 31.1841 16.2087 31.1071C16.1571 31.0302 16.1095 30.9509 16.0658 30.8693C16.022 30.7877 15.9824 30.7041 15.9469 30.6186C15.9114 30.5331 15.8801 30.4461 15.8532 30.3576C15.8263 30.269 15.8038 30.1793 15.7857 30.0886C15.7676 29.9978 15.754 29.9064 15.7449 29.8143C15.7358 29.7222 15.7312 29.6299 15.7312 29.5374C15.7312 29.4448 15.7358 29.3525 15.7449 29.2604C15.754 29.1683 15.7676 29.0769 15.7857 28.9861C15.8038 28.8953 15.8263 28.8057 15.8532 28.7171C15.8801 28.6286 15.9114 28.5415 15.9469 28.4561C15.9824 28.3706 16.022 28.287 16.0658 28.2054C16.1095 28.1238 16.1571 28.0445 16.2087 27.9675C16.2602 27.8906 16.3155 27.8164 16.3743 27.7448C16.4332 27.6733 16.4954 27.6048 16.561 27.5394C16.6267 27.4739 16.6953 27.4119 16.7671 27.3532C16.8388 27.2945 16.9132 27.2394 16.9904 27.188C17.0675 27.1366 17.147 27.0891 17.2289 27.0454C17.3107 27.0018 17.3945 26.9623 17.4802 26.9269C17.5659 26.8915 17.6532 26.8603 17.742 26.8335C17.8308 26.8066 17.9207 26.7841 18.0117 26.7661C18.1027 26.748 18.1944 26.7345 18.2867 26.7254C18.3791 26.7163 18.4716 26.7118 18.5644 26.7118C18.6572 26.7118 18.7498 26.7163 18.8421 26.7254C18.9345 26.7345 19.0261 26.748 19.1171 26.7661C19.2082 26.7841 19.2981 26.8066 19.3868 26.8335C19.4756 26.8603 19.5629 26.8915 19.6486 26.9269C19.7344 26.9623 19.8181 27.0018 19.9 27.0454C19.9818 27.0891 20.0613 27.1366 20.1385 27.188C20.2156 27.2394 20.2901 27.2945 20.3618 27.3532C20.4335 27.4119 20.5022 27.4739 20.5678 27.5394C20.6334 27.6048 20.6956 27.6733 20.7545 27.7448C20.8134 27.8164 20.8686 27.8906 20.9201 27.9675C20.9717 28.0445 21.0193 28.1238 21.0631 28.2054C21.1068 28.287 21.1464 28.3706 21.182 28.4561C21.2175 28.5415 21.2487 28.6286 21.2756 28.7171C21.3026 28.8057 21.3251 28.8953 21.3432 28.9861C21.3613 29.0769 21.3749 29.1683 21.384 29.2604C21.3931 29.3525 21.3976 29.4448 21.3976 29.5374Z" fill="#EAEEF9"/>
<path d="M12.5234 66.2475C12.5234 66.3333 12.5213 66.4192 12.517 66.5049C12.5127 66.5907 12.5064 66.6763 12.498 66.7618C12.4895 66.8473 12.479 66.9325 12.4664 67.0174C12.4537 67.1024 12.439 67.187 12.4222 67.2712C12.4054 67.3554 12.3865 67.4392 12.3656 67.5225C12.3447 67.6058 12.3217 67.6885 12.2968 67.7707C12.2718 67.8529 12.2448 67.9344 12.2158 68.0153C12.1867 68.0961 12.1557 68.1762 12.1228 68.2556C12.0899 68.3349 12.055 68.4134 12.0181 68.491C11.9813 68.5687 11.9426 68.6453 11.902 68.7211C11.8614 68.7968 11.819 68.8715 11.7747 68.9452C11.7305 69.0189 11.6844 69.0914 11.6366 69.1628C11.5887 69.2342 11.5392 69.3044 11.4879 69.3733C11.4366 69.4423 11.3836 69.51 11.329 69.5764C11.2743 69.6428 11.2181 69.7078 11.1603 69.7714C11.1024 69.8351 11.0431 69.8972 10.9823 69.9579C10.9214 70.0187 10.859 70.0779 10.7952 70.1355C10.7314 70.1932 10.6662 70.2493 10.5996 70.3038C10.5331 70.3583 10.4652 70.4111 10.396 70.4622C10.3269 70.5134 10.2565 70.5628 10.1849 70.6106C10.1133 70.6583 10.0406 70.7042 9.9667 70.7483C9.89285 70.7925 9.81795 70.8348 9.74202 70.8753C9.66603 70.9158 9.58913 70.9544 9.51131 70.9911C9.43347 71.0278 9.35477 71.0626 9.27521 71.0955C9.19565 71.1284 9.11533 71.1593 9.03426 71.1882C8.95318 71.2171 8.87144 71.244 8.78904 71.269C8.70663 71.2939 8.62367 71.3168 8.54014 71.3377C8.45661 71.3585 8.37261 71.3773 8.28816 71.3941C8.2037 71.4108 8.11888 71.4255 8.03371 71.4381C7.94853 71.4507 7.86309 71.4612 7.77739 71.4696C7.6917 71.4781 7.60585 71.4844 7.51984 71.4886C7.43383 71.4928 7.34777 71.4949 7.26166 71.4949C7.17555 71.4949 7.08949 71.4928 7.00348 71.4886C6.91747 71.4844 6.83162 71.4781 6.74593 71.4696C6.66023 71.4612 6.57479 71.4507 6.48962 71.4381C6.40443 71.4255 6.31961 71.4108 6.23516 71.3941C6.1507 71.3773 6.06671 71.3585 5.98318 71.3377C5.89965 71.3168 5.81668 71.2939 5.73428 71.269C5.65187 71.244 5.57013 71.2171 5.48906 71.1882C5.40798 71.1593 5.32766 71.1284 5.24811 71.0955C5.16856 71.0626 5.08986 71.0278 5.01201 70.9911C4.93417 70.9544 4.85728 70.9158 4.78133 70.8753C4.70538 70.8348 4.63048 70.7925 4.55662 70.7483C4.48277 70.7042 4.41004 70.6583 4.33844 70.6106C4.26684 70.5628 4.19646 70.5134 4.12729 70.4622C4.05812 70.4111 3.99026 70.3583 3.9237 70.3038C3.85713 70.2493 3.79195 70.1932 3.72814 70.1355C3.66434 70.0779 3.60199 70.0187 3.5411 69.9579C3.48021 69.8972 3.42085 69.8351 3.36302 69.7714C3.30519 69.7078 3.24897 69.6428 3.19434 69.5764C3.13971 69.51 3.08675 69.4423 3.03545 69.3733C2.98416 69.3044 2.93459 69.2342 2.88675 69.1628C2.83891 69.0914 2.79285 69.0189 2.74858 68.9452C2.70431 68.8715 2.66188 68.7968 2.62129 68.7211C2.5807 68.6453 2.54199 68.5687 2.50518 68.491C2.46836 68.4134 2.43347 68.3349 2.40052 68.2556C2.36757 68.1762 2.33658 68.0961 2.30757 68.0153C2.27856 67.9344 2.25156 67.8529 2.22657 67.7707C2.20157 67.6885 2.17861 67.6058 2.15768 67.5225C2.13676 67.4392 2.1179 67.3554 2.1011 67.2712C2.0843 67.187 2.06958 67.1024 2.05695 67.0174C2.04431 66.9325 2.03378 66.8473 2.02534 66.7618C2.0169 66.6763 2.01056 66.5907 2.00634 66.5049C2.00211 66.4192 2 66.3333 2 66.2475C2 66.1616 2.00211 66.0757 2.00634 65.99C2.01056 65.9042 2.0169 65.8186 2.02534 65.7331C2.03378 65.6476 2.04431 65.5624 2.05695 65.4775C2.06958 65.3925 2.0843 65.308 2.1011 65.2237C2.1179 65.1395 2.13676 65.0557 2.15768 64.9724C2.17861 64.8891 2.20157 64.8064 2.22657 64.7242C2.25156 64.642 2.27856 64.5605 2.30757 64.4796C2.33658 64.3988 2.36757 64.3187 2.40052 64.2393C2.43347 64.16 2.46836 64.0815 2.50518 64.0039C2.54199 63.9263 2.5807 63.8496 2.62129 63.7738C2.66188 63.6981 2.70431 63.6234 2.74858 63.5497C2.79285 63.4761 2.83891 63.4035 2.88675 63.3321C2.93459 63.2607 2.98416 63.1905 3.03545 63.1216C3.08675 63.0526 3.13971 62.9849 3.19434 62.9185C3.24897 62.8521 3.30519 62.7871 3.36302 62.7235C3.42085 62.6598 3.48021 62.5977 3.5411 62.5369C3.60199 62.4762 3.66434 62.417 3.72814 62.3594C3.79195 62.3017 3.85713 62.2456 3.9237 62.1911C3.99026 62.1366 4.05812 62.0838 4.12729 62.0327C4.19646 61.9815 4.26684 61.9321 4.33844 61.8844C4.41004 61.8366 4.48277 61.7907 4.55662 61.7466C4.63048 61.7024 4.70538 61.6601 4.78133 61.6196C4.85728 61.5791 4.93417 61.5405 5.01201 61.5038C5.08986 61.4671 5.16856 61.4323 5.24811 61.3994C5.32766 61.3666 5.40798 61.3357 5.48906 61.3067C5.57013 61.2778 5.65187 61.2509 5.73428 61.226C5.81668 61.201 5.89965 61.1781 5.98318 61.1573C6.06671 61.1364 6.1507 61.1176 6.23516 61.1008C6.31961 61.0841 6.40443 61.0694 6.48962 61.0568C6.57479 61.0442 6.66023 61.0337 6.74593 61.0253C6.83162 61.0169 6.91747 61.0105 7.00348 61.0063C7.08949 61.0021 7.17555 61 7.26166 61C7.34777 61 7.43383 61.0021 7.51984 61.0063C7.60585 61.0105 7.6917 61.0169 7.77739 61.0253C7.86309 61.0337 7.94853 61.0442 8.03371 61.0568C8.11888 61.0694 8.2037 61.0841 8.28816 61.1008C8.37261 61.1176 8.45661 61.1364 8.54014 61.1573C8.62367 61.1781 8.70663 61.201 8.78904 61.226C8.87144 61.2509 8.95318 61.2778 9.03426 61.3067C9.11533 61.3357 9.19565 61.3666 9.27521 61.3994C9.35477 61.4323 9.43347 61.4671 9.51131 61.5038C9.58913 61.5405 9.66603 61.5791 9.74202 61.6196C9.81795 61.6601 9.89285 61.7024 9.9667 61.7466C10.0406 61.7907 10.1133 61.8366 10.1849 61.8844C10.2565 61.9321 10.3269 61.9815 10.396 62.0327C10.4652 62.0838 10.5331 62.1366 10.5996 62.1911C10.6662 62.2456 10.7314 62.3017 10.7952 62.3594C10.859 62.417 10.9214 62.4762 10.9823 62.5369C11.0431 62.5977 11.1024 62.6598 11.1603 62.7235C11.2181 62.7871 11.2743 62.8521 11.329 62.9185C11.3836 62.9849 11.4366 63.0526 11.4879 63.1216C11.5392 63.1905 11.5887 63.2607 11.6366 63.3321C11.6844 63.4035 11.7305 63.4761 11.7747 63.5497C11.819 63.6234 11.8614 63.6981 11.902 63.7738C11.9426 63.8496 11.9813 63.9263 12.0181 64.0039C12.055 64.0815 12.0899 64.16 12.1228 64.2393C12.1557 64.3187 12.1867 64.3988 12.2158 64.4796C12.2448 64.5605 12.2718 64.642 12.2968 64.7242C12.3217 64.8064 12.3447 64.8891 12.3656 64.9724C12.3865 65.0557 12.4054 65.1395 12.4222 65.2237C12.439 65.308 12.4537 65.3925 12.4664 65.4775C12.479 65.5624 12.4895 65.6476 12.498 65.7331C12.5064 65.8186 12.5127 65.9042 12.517 65.99C12.5213 66.0757 12.5234 66.1616 12.5234 66.2475Z" fill="#EAEEF9"/>
<g filter="url(#filter0_d_484_686)">
<path d="M102.043 40.4359L102.852 105.426C102.852 107.646 101.031 109.361 98.8047 109.361H35.2601C33.034 109.361 31.2126 107.545 31.2126 105.426V21.868C31.2126 19.6479 33.034 17.9324 35.2601 17.9324H81.2995L102.043 40.4359Z" fill="url(#paint0_linear_484_686)"/>
</g>
<path d="M62.1755 96.3435H49.7297C49.2237 96.3435 48.819 95.839 48.819 95.2335C48.819 94.628 49.2237 94.1234 49.7297 94.1234H62.1755C62.6815 94.1234 63.0862 94.628 63.0862 95.2335C63.0862 95.9399 62.6815 96.3435 62.1755 96.3435Z" fill="#D5DDEA"/>
<path d="M55.0925 96.3435H41.5336C41.0277 96.3435 40.6229 95.839 40.6229 95.2335C40.6229 94.628 41.0277 94.1234 41.5336 94.1234H55.0925C55.5984 94.1234 56.0032 94.628 56.0032 95.2335C56.0032 95.9399 55.5984 96.3435 55.0925 96.3435Z" fill="#D5DDEA"/>
<path d="M72.3952 31.5566H41.9384C41.2301 31.5566 40.6229 30.9511 40.6229 30.2447C40.6229 29.5383 41.2301 28.9329 41.9384 28.9329H72.3952C73.1035 28.9329 73.7107 29.5383 73.7107 30.2447C73.7107 30.9511 73.1035 31.5566 72.3952 31.5566Z" fill="#D5DDEA"/>
<path d="M53.6759 38.8223H41.9384C41.2301 38.8223 40.6229 38.2169 40.6229 37.5105C40.6229 36.8041 41.2301 36.1986 41.9384 36.1986H53.5747C54.283 36.1986 54.8901 36.8041 54.8901 37.5105C54.8901 38.2169 54.283 38.8223 53.6759 38.8223Z" fill="#D5DDEA"/>
<path d="M81.2996 17.9324V35.8948C81.2996 38.4177 83.5257 40.4359 86.0553 40.4359H102.043" fill="#D5DDEA"/>
<path d="M92.9986 78.8755H57.8912H54.0219H42.3188C41.8473 78.8755 41.3757 79.3498 41.3757 80.0159C41.3757 80.581 41.7532 81.1461 42.3188 81.1461H54.0219H57.8912H92.9986C93.4702 81.1461 93.9427 80.6718 93.9427 80.0159C93.8476 79.3498 93.4702 78.8755 92.9986 78.8755Z" fill="#D5DDEA"/>
<path d="M92.9045 70.6714H79.8809H75.445H42.3188C41.8473 70.6714 41.3757 71.1456 41.3757 71.8016C41.3757 72.3667 41.7532 72.9318 42.3188 72.9318H75.445H79.8809H92.9045C93.3761 72.9318 93.8476 72.4676 93.8476 71.8016C93.7535 71.1456 93.3761 70.6714 92.9045 70.6714Z" fill="#D5DDEA"/>
<path d="M93.1868 62.3763H89.79H86.3922H42.3188C41.8473 62.3763 41.3757 62.8405 41.3757 63.5066C41.3757 64.0717 41.7532 64.6368 42.3188 64.6368H86.3922H90.1675H93.0927C93.5653 64.6368 94.0368 64.1625 94.0368 63.5066C94.1309 62.9415 93.6594 62.3763 93.1868 62.3763Z" fill="#D5DDEA"/>
<path d="M56.1923 97.1811H42.3188C41.8473 97.1811 41.3757 96.7068 41.3757 96.0408C41.3757 95.4757 41.7532 94.9106 42.3188 94.9106H56.1923C56.6639 94.9106 57.1364 95.3849 57.1364 96.0408C57.1364 96.7976 56.6639 97.1811 56.1923 97.1811Z" fill="#E3EAF2"/>
<path d="M93.5653 54.1671H82.5229H79.7858H42.3188C41.8473 54.1671 41.3757 54.6364 41.3757 55.3024C41.3757 55.8675 41.7532 56.4326 42.3188 56.4326H79.7858H82.5229H93.4702C94.1309 56.4326 94.5084 55.9583 94.5084 55.3024C94.5084 54.7373 94.1309 54.1671 93.5653 54.1671Z" fill="#D5DDEA"/>
<path fill-rule="evenodd" clip-rule="evenodd" d="M20.8016 102.176H43.0747C45.4334 102.176 47.4155 100.198 47.3214 97.837V66.8972C47.3214 58.4104 40.3376 51.4313 31.8431 51.4313C23.3495 51.4313 16.3657 58.3196 16.3657 66.8972V97.7462C16.3657 100.198 18.3479 102.176 20.8016 102.176ZM38.6387 93.4069H25.2377V66.8972C25.2377 63.224 28.2571 60.2067 31.9382 60.2067C35.6183 60.2067 38.6387 63.224 38.6387 66.8972V93.4069Z" fill="#989FB0"/>
<path d="M52.229 110.572H11.9307C9.19362 110.572 6.92807 108.312 6.92807 105.567V78.8755C6.92807 76.1408 9.19362 73.8804 11.9307 73.8804H52.229C54.965 73.8804 57.2306 76.1408 57.2306 78.8755V105.567C57.2306 108.312 54.965 110.572 52.229 110.572Z" fill="#C2C8D6"/>
<path d="M37.129 88.1191C37.129 90.1071 35.9957 91.8024 34.3919 92.6501V98.1195C34.3919 99.4415 33.3537 100.481 32.0323 100.481C30.7108 100.481 29.6726 99.4415 29.6726 98.1195V92.6501C28.0688 91.8024 26.9365 90.1071 26.9365 88.1191C26.9365 85.2936 29.2011 83.0331 32.0323 83.0331C34.8634 83.0331 37.129 85.2936 37.129 88.1191Z" fill="#989FB0"/>
</g>
</g>
<defs>
<filter id="filter0_d_484_686" x="21.2126" y="12.9324" width="91.6395" height="111.429" filterUnits="userSpaceOnUse" color-interpolation-filters="sRGB">
<feFlood flood-opacity="0" result="BackgroundImageFix"/>
<feColorMatrix in="SourceAlpha" type="matrix" values="0 0 0 0 0 0 0 0 0 0 0 0 0 0 0 0 0 0 127 0" result="hardAlpha"/>
<feOffset dy="5"/>
<feGaussianBlur stdDeviation="5"/>
<feColorMatrix type="matrix" values="0 0 0 0 0.396078 0 0 0 0 0.478431 0 0 0 0 0.576471 0 0 0 0.27 0"/>
<feBlend mode="normal" in2="BackgroundImageFix" result="effect1_dropShadow_484_686"/>
<feBlend mode="normal" in="SourceGraphic" in2="effect1_dropShadow_484_686" result="shape"/>
</filter>
<linearGradient id="paint0_linear_484_686" x1="67.0098" y1="15.8145" x2="67.0098" y2="110.345" gradientUnits="userSpaceOnUse">
<stop stop-color="#FDFEFF"/>
<stop offset="0.9964" stop-color="#ECF0F5"/>
</linearGradient>
<clipPath id="clip0_484_686">
<rect width="128" height="128" fill="white"/>
</clipPath>
</defs>
</svg>
