<svg width="256" height="128" viewBox="0 0 256 128" fill="none" xmlns="http://www.w3.org/2000/svg">
<g clip-path="url(#clip0_485_751)">
<mask id="mask0_485_751" style="mask-type:luminance" maskUnits="userSpaceOnUse" x="11" y="0" width="233" height="128">
<path d="M244 0H11V128H244V0Z" fill="white"/>
</mask>
<g mask="url(#mask0_485_751)">
<path d="M115.75 51.6453C115.75 52.3908 115.731 53.1358 115.695 53.8803C115.658 54.6249 115.603 55.3682 115.529 56.1101C115.456 56.852 115.365 57.5917 115.255 58.3291C115.145 59.0665 115.017 59.8008 114.872 60.532C114.726 61.2631 114.562 61.9903 114.38 62.7134C114.198 63.4366 113.999 64.155 113.782 64.8687C113.565 65.5816 113.33 66.2891 113.078 66.9911C112.826 67.6932 112.557 68.3885 112.271 69.0769C111.985 69.7658 111.682 70.4471 111.362 71.1209C111.042 71.795 110.706 72.4608 110.354 73.1183C110.001 73.7757 109.633 74.424 109.248 75.0633C108.864 75.7029 108.464 76.3326 108.048 76.9524C107.633 77.5723 107.202 78.1816 106.756 78.7805C106.311 79.379 105.851 79.9666 105.376 80.5434C104.902 81.1194 104.414 81.6836 103.911 82.2359C103.409 82.7883 102.894 83.328 102.365 83.8551C101.836 84.3823 101.294 84.8962 100.74 85.3969C100.186 85.8977 99.6201 86.3845 99.0423 86.8573C98.464 87.3305 97.8745 87.789 97.2738 88.2327C96.673 88.6768 96.0618 89.106 95.4401 89.5203C94.8183 89.9345 94.1867 90.3331 93.5452 90.7159C92.9037 91.0995 92.253 91.4671 91.5932 91.8185C90.9338 92.1699 90.2661 92.505 89.59 92.8238C88.9139 93.1423 88.2305 93.4443 87.5396 93.7297C86.8484 94.0152 86.1507 94.2834 85.4467 94.5344C84.7426 94.7854 84.0328 95.0191 83.3171 95.2355C82.6013 95.4519 81.8807 95.6507 81.1552 95.8319C80.4298 96.013 79.7003 96.1763 78.9668 96.3217C78.2333 96.4672 77.4966 96.5946 76.7568 96.704C76.017 96.8134 75.275 96.9045 74.5307 96.9775C73.7864 97.0508 73.0408 97.1057 72.2938 97.1421C71.5468 97.1786 70.7994 97.1968 70.0515 97.1968C69.3037 97.1968 68.5562 97.1786 67.8092 97.1421C67.0622 97.1057 66.3166 97.0508 65.5723 96.9775C64.828 96.9045 64.086 96.8134 63.3462 96.704C62.6065 96.5946 61.8698 96.4672 61.1363 96.3217C60.4028 96.1763 59.6733 96.013 58.9478 95.8319C58.2224 95.6507 57.5018 95.4519 56.7861 95.2355C56.0704 95.0191 55.3605 94.7854 54.6563 94.5344C53.9522 94.2834 53.2546 94.0152 52.5636 93.7297C51.8727 93.4443 51.1892 93.1423 50.5131 92.8238C49.837 92.505 49.1692 92.1699 48.5096 91.8185C47.8501 91.4671 47.1996 91.0995 46.5581 90.7159C45.9166 90.3331 45.2849 89.9345 44.6631 89.5203C44.0412 89.106 43.43 88.6768 42.8293 88.2327C42.2285 87.789 41.6391 87.3305 41.061 86.8573C40.4829 86.3845 39.9168 85.8977 39.3626 85.3969C38.8085 84.8962 38.267 84.3823 37.7381 83.8551C37.2093 83.328 36.6938 82.7883 36.1915 82.2359C35.6893 81.6836 35.2009 81.1194 34.7265 80.5434C34.252 79.9666 33.7921 79.379 33.3466 78.7805C32.901 78.1816 32.4705 77.5723 32.055 76.9524C31.6395 76.3326 31.2395 75.7029 30.855 75.0633C30.4705 74.424 30.102 73.7757 29.7495 73.1183C29.3969 72.4608 29.0608 71.795 28.741 71.1209C28.4213 70.4471 28.1183 69.7658 27.8321 69.0769C27.5459 68.3885 27.2768 67.6932 27.0248 66.9911C26.7729 66.2891 26.5384 65.5816 26.3213 64.8687C26.1042 64.155 25.9047 63.4366 25.723 62.7134C25.5413 61.9903 25.3775 61.2631 25.2316 60.532C25.0857 59.8008 24.9579 59.0665 24.8481 58.3291C24.7384 57.5917 24.6469 56.852 24.5736 56.1101C24.5003 55.3682 24.4453 54.6249 24.4086 53.8803C24.3719 53.1358 24.3535 52.3908 24.3535 51.6453C24.3535 50.8998 24.3719 50.1547 24.4086 49.4101C24.4453 48.6655 24.5003 47.9223 24.5736 47.1804C24.6469 46.4385 24.7384 45.6988 24.8481 44.9614C24.9579 44.224 25.0857 43.4897 25.2316 42.7585C25.3775 42.0274 25.5413 41.3002 25.723 40.577C25.9047 39.8539 26.1042 39.1356 26.3213 38.4223C26.5384 37.7089 26.7729 37.0012 27.0248 36.2993C27.2768 35.5974 27.5459 34.9021 27.8321 34.2133C28.1183 33.5246 28.4213 32.8433 28.741 32.1693C29.0608 31.4954 29.3969 30.8297 29.7495 30.1723C30.102 29.5148 30.4705 28.8663 30.855 28.2269C31.2395 27.5875 31.6395 26.9579 32.055 26.338C32.4705 25.7181 32.901 25.1088 33.3466 24.5101C33.7921 23.9113 34.252 23.3237 34.7265 22.7475C35.2009 22.1712 35.6893 21.6069 36.1915 21.0545C36.6938 20.5021 37.2093 19.9624 37.7381 19.4352C38.267 18.9081 38.8085 18.3942 39.3626 17.8935C39.9168 17.3929 40.4829 16.9061 41.061 16.4332C41.6391 15.9602 42.2285 15.5017 42.8293 15.0577C43.43 14.6136 44.0412 14.1844 44.6631 13.7702C45.2849 13.3561 45.9166 12.9574 46.5581 12.5741C47.1996 12.1909 47.8501 11.8235 48.5096 11.4721C49.1692 11.1207 49.837 10.7856 50.5131 10.4669C51.1892 10.1481 51.8727 9.8461 52.5636 9.56082C53.2546 9.27553 53.9522 9.00731 54.6563 8.75616C55.3605 8.50501 56.0704 8.27124 56.7861 8.05483C57.5018 7.83843 58.2224 7.63965 58.9478 7.45852C59.6733 7.27738 60.4028 7.11409 61.1363 6.96865C61.8698 6.82321 62.6065 6.6958 63.3462 6.58641C64.086 6.47703 64.828 6.3858 65.5723 6.31273C66.3166 6.23966 67.0622 6.18483 67.8092 6.14825C68.5562 6.11167 69.3037 6.09338 70.0515 6.09338C70.7994 6.09338 71.5468 6.11167 72.2938 6.14825C73.0408 6.18483 73.7864 6.23966 74.5307 6.31273C75.275 6.3858 76.017 6.47703 76.7568 6.58641C77.4966 6.6958 78.2332 6.82321 78.9667 6.96865C79.7003 7.11409 80.4298 7.27738 81.1552 7.45852C81.8807 7.63966 82.6013 7.83843 83.3171 8.05483C84.0328 8.27124 84.7426 8.50501 85.4467 8.75616C86.1507 9.00731 86.8484 9.27553 87.5396 9.56082C88.2305 9.8461 88.9139 10.1481 89.59 10.4669C90.2661 10.7856 90.9338 11.1207 91.5932 11.4721C92.253 11.8235 92.9037 12.1909 93.5452 12.5741C94.1867 12.9574 94.8183 13.3561 95.4401 13.7702C96.0618 14.1844 96.673 14.6136 97.2738 15.0577C97.8745 15.5017 98.464 15.9602 99.0423 16.4332C99.6201 16.9061 100.186 17.3929 100.74 17.8935C101.294 18.3942 101.836 18.9081 102.365 19.4352C102.894 19.9624 103.409 20.5021 103.911 21.0545C104.414 21.6069 104.902 22.1712 105.376 22.7475C105.851 23.3237 106.311 23.9113 106.756 24.5101C107.202 25.1088 107.633 25.7181 108.048 26.338C108.464 26.9578 108.864 27.5875 109.248 28.2269C109.633 28.8663 110.001 29.5148 110.354 30.1723C110.706 30.8297 111.042 31.4954 111.362 32.1693C111.682 32.8433 111.985 33.5246 112.271 34.2133C112.557 34.9021 112.826 35.5974 113.078 36.2993C113.33 37.0012 113.565 37.7089 113.782 38.4223C113.999 39.1356 114.198 39.8539 114.38 40.577C114.562 41.3002 114.726 42.0274 114.872 42.7585C115.017 43.4897 115.145 44.224 115.255 44.9614C115.365 45.6988 115.456 46.4385 115.529 47.1804C115.603 47.9223 115.658 48.6655 115.695 49.4101C115.731 50.1547 115.75 50.8998 115.75 51.6453Z" fill="#EFF3FA"/>
<path d="M237.056 101.634H20.1399L53.9088 56.4373L68.3899 37.2696L81.0309 50.9357L83.464 53.5383L110.645 16.0322L122.278 0L131.358 13.1926L162.278 58.0933L174.741 43.8953L181.091 36.6191L186.492 43.0672L237.056 101.634Z" fill="#D9E0EC"/>
<path d="M68.3899 37.2702L67.7961 101.634H20.1399L53.9088 56.4374L68.3899 37.2702Z" fill="#E8EDF8"/>
<path d="M122.278 0L120.319 94.8905L83.4642 53.5383L122.278 0Z" fill="#E8EDF8"/>
<path d="M182.219 92.3465L162.278 58.0936L181.091 36.6191L182.219 92.3465Z" fill="#E8EDF8"/>
<path fill-rule="evenodd" clip-rule="evenodd" d="M237.057 102.503H244V100.765H11V102.503H237.057Z" fill="#CDD6E1"/>
<path fill-rule="evenodd" clip-rule="evenodd" d="M148.569 112.087H133.494V110.349H148.569V112.087Z" fill="#CDD6E1"/>
<path fill-rule="evenodd" clip-rule="evenodd" d="M190.112 112.087H175.038V110.349H190.112V112.087Z" fill="#CDD6E1"/>
<path fill-rule="evenodd" clip-rule="evenodd" d="M169.044 112.087H165.839V110.349H169.044V112.087Z" fill="#CDD6E1"/>
<path fill-rule="evenodd" clip-rule="evenodd" d="M119.725 112.087H65.7188V110.349H119.725V112.087Z" fill="#CDD6E1"/>
<path fill-rule="evenodd" clip-rule="evenodd" d="M49.7546 112.087H42.9293V110.349H49.7546V112.087Z" fill="#CDD6E1"/>
<path fill-rule="evenodd" clip-rule="evenodd" d="M235.394 112.087H216.403V110.349H235.394V112.087Z" fill="#CDD6E1"/>
<path fill-rule="evenodd" clip-rule="evenodd" d="M32.603 112.087H14.1455V110.349H32.603V112.087Z" fill="#CDD6E1"/>
<path fill-rule="evenodd" clip-rule="evenodd" d="M88.5088 120.073H28.8643V118.335H88.5088V120.073Z" fill="#CDD6E1"/>
<path fill-rule="evenodd" clip-rule="evenodd" d="M165.839 120.073H123.761V118.335H165.839V120.073Z" fill="#CDD6E1"/>
<path fill-rule="evenodd" clip-rule="evenodd" d="M229.579 120.073H187.501V118.335H229.579V120.073Z" fill="#CDD6E1"/>
<path fill-rule="evenodd" clip-rule="evenodd" d="M115.393 120.073H106.194V118.335H115.393V120.073Z" fill="#CDD6E1"/>
<path fill-rule="evenodd" clip-rule="evenodd" d="M203.762 128H152.842V126.262H203.762V128Z" fill="#CDD6E1"/>
<path fill-rule="evenodd" clip-rule="evenodd" d="M133.494 128H99.9032V126.262H133.494V128Z" fill="#CDD6E1"/>
<path fill-rule="evenodd" clip-rule="evenodd" d="M88.5088 128H78.5385V126.262H88.5088V128Z" fill="#CDD6E1"/>
<path fill-rule="evenodd" clip-rule="evenodd" d="M63.3453 128H41.3268V126.262H63.3453V128Z" fill="#CDD6E1"/>
<path d="M90.2295 86.312C90.2295 90.0392 87.2029 91.6955 83.5236 91.6955C79.8438 91.6955 76.8171 90.0392 76.8171 86.312C76.8171 83.8276 79.0526 74.9145 83.5236 59.5728C87.9942 74.9537 90.2295 83.8668 90.2295 86.312Z" fill="white"/>
<path fill-rule="evenodd" clip-rule="evenodd" d="M82.8817 100.924V79.8045H84.0467V100.924H82.8817Z" fill="#B9C0D0"/>
<path fill-rule="evenodd" clip-rule="evenodd" d="M86.2878 81.7133L83.855 83.9018L83.0734 83.0428L85.5062 80.8542L86.2878 81.7133Z" fill="#B9C0D0"/>
<path fill-rule="evenodd" clip-rule="evenodd" d="M83.0183 88.8739L79.5168 84.7326L80.4085 83.9871L83.91 88.1284L83.0183 88.8739Z" fill="#B9C0D0"/>
<path d="M150.527 84.6557C150.527 88.797 147.145 90.6308 143.049 90.6308C138.895 90.6308 135.571 88.797 135.571 84.6557C135.571 81.8948 138.064 71.976 143.049 54.8993C148.034 72.0157 150.527 81.9345 150.527 84.6557Z" fill="white"/>
<path fill-rule="evenodd" clip-rule="evenodd" d="M142.467 100.924V77.3789H143.632V100.924H142.467Z" fill="#B9C0D0"/>
<path fill-rule="evenodd" clip-rule="evenodd" d="M146.118 79.4588L143.447 81.9432L142.651 81.0972L145.322 78.6128L146.118 79.4588Z" fill="#B9C0D0"/>
<path fill-rule="evenodd" clip-rule="evenodd" d="M142.602 87.5115L138.685 82.838L139.58 82.0963L143.497 86.7699L142.602 87.5115Z" fill="#B9C0D0"/>
<path d="M174.86 90.9855C174.86 93.5294 172.783 94.6533 170.29 94.6533C167.738 94.6533 165.72 93.5294 165.72 90.9855C165.72 89.2896 167.244 83.2161 170.29 72.7648C173.336 83.2161 174.86 89.2896 174.86 90.9855Z" fill="white"/>
<path fill-rule="evenodd" clip-rule="evenodd" d="M169.648 100.924V86.5484H170.813V100.924H169.648Z" fill="#B9C0D0"/>
<path fill-rule="evenodd" clip-rule="evenodd" d="M172.281 87.9864L170.619 89.4651L169.842 88.6018L171.504 87.1231L172.281 87.9864Z" fill="#B9C0D0"/>
<path fill-rule="evenodd" clip-rule="evenodd" d="M169.783 92.835L167.409 89.9954L168.304 89.2548L170.678 92.0945L169.783 92.835Z" fill="#B9C0D0"/>
<path d="M199.37 88.1458C199.37 91.3996 196.759 92.8194 193.495 92.8194C190.231 92.8194 187.619 91.3996 187.619 88.1458C187.619 85.9767 189.578 78.1678 193.495 64.7193C197.412 78.1678 199.37 85.9767 199.37 88.1458Z" fill="white"/>
<path fill-rule="evenodd" clip-rule="evenodd" d="M192.912 100.924V82.4077H194.077V100.924H192.912Z" fill="#B9C0D0"/>
<path fill-rule="evenodd" clip-rule="evenodd" d="M195.966 84.1364L193.888 86.0291L193.101 85.175L195.179 83.2823L195.966 84.1364Z" fill="#B9C0D0"/>
<path fill-rule="evenodd" clip-rule="evenodd" d="M193.048 90.4108L189.962 86.7431L190.856 85.9997L193.942 89.6675L193.048 90.4108Z" fill="#B9C0D0"/>
<g opacity="0.8">
<path d="M83.9979 53.8935L73.7905 54.781L69.0425 59.6317L63.3453 58.6259L53.9088 64.4828L50.9417 60.6374L68.5676 37.2702L83.9979 53.8935Z" fill="white"/>
</g>
<g opacity="0.6">
<path d="M135.987 19.877L131.18 18.8125L126.254 21.1198L122.278 20.1141L118.48 26.8579L112.545 24.0777L105.898 26.8579L104.77 24.2553L122.278 0L135.987 19.877Z" fill="white"/>
</g>
<g opacity="0.6">
<path d="M189.637 46.4985L184.652 50.4027L180.023 47.8596L173.495 51.6456L171.655 47.6819L181.329 36.6191L189.637 46.4985Z" fill="white"/>
</g>
<path d="M63.8791 19.7588C64.829 19.5224 65.7188 19.4629 66.6686 19.4629C67.559 19.4629 68.5082 19.5224 69.3986 19.6406C70.289 19.7588 71.2382 19.9958 72.1286 20.4099C73.0191 20.824 73.9088 21.4157 74.4432 22.4214L73.4345 22.1844L74.5026 21.3562C74.9181 21.1198 75.2741 20.824 75.6302 20.5869C76.4017 20.114 77.2326 19.7 78.123 19.4041C79.0129 19.1083 79.9032 18.8718 80.7936 18.753C81.7429 18.6942 82.6333 18.6942 83.5825 18.9307C83.7608 18.9901 83.8202 19.1677 83.7608 19.2859C83.7013 19.4629 83.5825 19.5224 83.4048 19.4629H83.3453C82.5738 19.2859 81.6834 19.3447 80.8525 19.4629C80.0221 19.5818 79.1912 19.8776 78.4196 20.2323C77.6481 20.5875 76.936 21.0016 76.2234 21.4745C75.8674 21.7115 75.5113 22.0068 75.2147 22.2438L74.2648 23.0719C73.9683 23.3084 73.6122 23.2495 73.3751 23.0125L73.3156 23.0719L73.2562 22.9537C73.0191 22.3026 72.3658 21.7703 71.6537 21.4157C70.9416 21.0604 70.1107 20.7646 69.2203 20.5869C68.3899 20.4099 67.4995 20.2917 66.6092 20.2323C65.7188 20.1729 64.829 20.1729 64.0574 20.3505H63.998C63.8197 20.4099 63.7014 20.2917 63.642 20.114C63.642 19.9364 63.7014 19.7588 63.8791 19.7588Z" fill="#989FB0"/>
<path d="M37.5287 35.9686C38.4786 35.7316 39.3684 35.6728 40.3182 35.6728C41.2086 35.6728 42.1578 35.7316 43.0482 35.8498C43.9386 35.9686 44.8878 36.2051 45.7782 36.6191C46.6687 37.0332 47.5584 37.6249 48.0928 38.6307L47.0841 38.3936L48.1522 37.5655C48.5677 37.329 48.9237 37.0332 49.2798 36.7968C50.0513 36.3233 50.8822 35.9092 51.7721 35.6134C52.6625 35.3175 53.5528 35.0811 54.4432 34.9629C55.3925 34.9035 56.2829 34.9035 57.2321 35.1399C57.4104 35.1993 57.4698 35.3769 57.4104 35.4951C57.3509 35.6728 57.2321 35.7316 57.0544 35.6728H56.9949C56.2234 35.4951 55.333 35.554 54.5021 35.6728C53.6717 35.791 52.8408 36.0868 52.0692 36.4415C51.2977 36.7968 50.5856 37.2108 49.873 37.6837C49.517 37.9207 49.1609 38.2166 48.8643 38.453L47.9144 39.2812C47.6179 39.5176 47.2618 39.4588 47.0247 39.2218L46.9652 39.1629L46.9058 39.0447C46.6686 38.3936 46.0154 37.8613 45.3033 37.5067C44.5912 37.1514 43.7603 36.8556 42.8699 36.6779C42.0395 36.5009 41.1491 36.3827 40.2587 36.3233C39.3684 36.2639 38.4786 36.2639 37.707 36.4415H37.6476C37.4693 36.5009 37.351 36.3827 37.2916 36.2051C37.2916 36.1457 37.4098 35.9686 37.5287 35.9686Z" fill="#989FB0"/>
<path d="M70.289 33.6613C71.2382 33.4248 72.1286 33.3654 73.0779 33.3654C73.9683 33.3654 74.9181 33.4248 75.8079 33.543C76.6983 33.6613 77.6481 33.8977 78.5379 34.3118C79.4283 34.7258 80.3187 35.3175 80.8525 36.3233L79.8438 36.0868L80.9119 35.2587C81.3274 35.0217 81.6834 34.7258 82.0394 34.4894C82.811 34.0159 83.6419 33.6018 84.5323 33.306C85.4227 33.0107 86.3125 32.7737 87.2029 32.6555C88.1527 32.5967 89.0425 32.5967 89.9924 32.8331C90.1701 32.8919 90.2295 33.0696 90.1701 33.1878C90.1113 33.3654 89.9924 33.4248 89.8141 33.3654H89.7552C88.9831 33.1878 88.0933 33.2472 87.2623 33.3654C86.4314 33.4836 85.6004 33.7795 84.8289 34.1347C84.0574 34.4894 83.3453 34.9035 82.6332 35.3769C82.2772 35.6134 81.9212 35.9092 81.6239 36.1457L80.6748 36.9744C80.3781 37.2108 80.0221 37.1514 79.7843 36.915L79.7249 36.8556L79.6655 36.7374C79.4283 36.0868 78.7757 35.5546 78.0636 35.1993C77.3509 34.8446 76.5205 34.5488 75.6302 34.3712C74.7992 34.1935 73.9088 34.0753 73.019 34.0159C72.1286 33.9571 71.2382 33.9571 70.4667 34.1347H70.4073C70.2296 34.1935 70.1107 34.0753 70.0512 33.8977C70.0512 33.8389 70.1107 33.6613 70.289 33.6613Z" fill="#989FB0"/>
<g filter="url(#filter0_d_485_751)">
<path d="M177.37 34.4704C177.37 37.875 174.608 40.6279 171.163 40.6279C171.104 40.6279 170.599 40.6279 166.887 40.6279C164.303 40.6279 160.174 40.6279 153.581 40.6279H150.433C146.305 40.7171 143.008 37.4306 143.008 33.4634C143.008 29.4671 146.334 26.1516 150.522 26.3583C154.116 15.1678 170.569 16.7368 171.965 28.3123C175.054 28.6972 177.37 31.3028 177.37 34.4704Z" fill="url(#paint0_linear_485_751)"/>
</g>
<path d="M171.163 40.6279C174.578 40.6279 177.37 37.8749 177.37 34.4704C177.37 31.0657 174.578 28.3122 171.163 28.3122C167.748 28.3122 164.956 31.0657 164.956 34.4704C164.956 37.8749 167.748 40.6279 171.163 40.6279Z" fill="url(#paint1_linear_485_751)"/>
<path d="M161.035 40.6873C167.124 40.6873 172.084 35.7726 172.084 29.7036C172.084 23.6351 167.124 18.7204 161.035 18.7204C154.947 18.7204 149.987 23.6351 149.987 29.7036C149.987 35.7726 154.917 40.6873 161.035 40.6873Z" fill="url(#paint2_linear_485_751)"/>
<g filter="url(#filter1_d_485_751)">
<path d="M129.274 45.3026C129.274 47.869 127.192 49.9442 124.595 49.9442C124.55 49.9442 124.17 49.9442 121.371 49.9442C119.423 49.9442 116.312 49.9442 111.342 49.9442H108.969C105.857 50.0113 103.373 47.5346 103.373 44.544C103.373 41.5315 105.88 39.0322 109.037 39.1885C111.745 30.7533 124.147 31.9361 125.2 40.6612C127.528 40.9511 129.274 42.9151 129.274 45.3026Z" fill="url(#paint3_linear_485_751)"/>
</g>
<path d="M124.595 49.9441C127.169 49.9441 129.274 47.869 129.274 45.3027C129.274 42.7363 127.169 40.6612 124.595 40.6612C122.021 40.6612 119.916 42.7363 119.916 45.3027C119.916 47.869 122.021 49.9441 124.595 49.9441Z" fill="url(#paint4_linear_485_751)"/>
<path d="M116.961 49.9887C121.551 49.9887 125.289 46.2847 125.289 41.7097C125.289 37.1354 121.551 33.4307 116.961 33.4307C112.372 33.4307 108.634 37.1354 108.634 41.7097C108.634 46.2847 112.35 49.9887 116.961 49.9887Z" fill="url(#paint5_linear_485_751)"/>
</g>
</g>
<defs>
<filter id="filter0_d_485_751" x="121.008" y="7.7471" width="78.3622" height="65.8826" filterUnits="userSpaceOnUse" color-interpolation-filters="sRGB">
<feFlood flood-opacity="0" result="BackgroundImageFix"/>
<feColorMatrix in="SourceAlpha" type="matrix" values="0 0 0 0 0 0 0 0 0 0 0 0 0 0 0 0 0 0 127 0" result="hardAlpha"/>
<feOffset dy="11"/>
<feGaussianBlur stdDeviation="11"/>
<feColorMatrix type="matrix" values="0 0 0 0 0.396078 0 0 0 0 0.478431 0 0 0 0 0.576471 0 0 0 0.27 0"/>
<feBlend mode="normal" in2="BackgroundImageFix" result="effect1_dropShadow_485_751"/>
<feBlend mode="normal" in="SourceGraphic" in2="effect1_dropShadow_485_751" result="shape"/>
</filter>
<filter id="filter1_d_485_751" x="81.3726" y="22.4513" width="69.901" height="60.4942" filterUnits="userSpaceOnUse" color-interpolation-filters="sRGB">
<feFlood flood-opacity="0" result="BackgroundImageFix"/>
<feColorMatrix in="SourceAlpha" type="matrix" values="0 0 0 0 0 0 0 0 0 0 0 0 0 0 0 0 0 0 127 0" result="hardAlpha"/>
<feOffset dy="11"/>
<feGaussianBlur stdDeviation="11"/>
<feColorMatrix type="matrix" values="0 0 0 0 0.396078 0 0 0 0 0.478431 0 0 0 0 0.576471 0 0 0 0.27 0"/>
<feBlend mode="normal" in2="BackgroundImageFix" result="effect1_dropShadow_485_751"/>
<feBlend mode="normal" in="SourceGraphic" in2="effect1_dropShadow_485_751" result="shape"/>
</filter>
<linearGradient id="paint0_linear_485_751" x1="160.178" y1="18.2402" x2="160.178" y2="40.8651" gradientUnits="userSpaceOnUse">
<stop stop-color="#FDFEFF"/>
<stop offset="0.9964" stop-color="#ECF0F5"/>
</linearGradient>
<linearGradient id="paint1_linear_485_751" x1="164.296" y1="26.9869" x2="169.775" y2="33.0064" gradientUnits="userSpaceOnUse">
<stop stop-color="#BCCBE1"/>
<stop offset="0.9942" stop-color="white" stop-opacity="0"/>
</linearGradient>
<linearGradient id="paint2_linear_485_751" x1="148.953" y1="24.664" x2="157.617" y2="28.0696" gradientUnits="userSpaceOnUse">
<stop stop-color="#E2E8F0"/>
<stop offset="0.9942" stop-color="white" stop-opacity="0"/>
</linearGradient>
<linearGradient id="paint3_linear_485_751" x1="116.315" y1="33.0692" x2="116.315" y2="50.123" gradientUnits="userSpaceOnUse">
<stop stop-color="#FDFEFF"/>
<stop offset="0.9964" stop-color="#ECF0F5"/>
</linearGradient>
<linearGradient id="paint4_linear_485_751" x1="119.418" y1="39.6619" x2="123.549" y2="44.1995" gradientUnits="userSpaceOnUse">
<stop stop-color="#BCCBE1"/>
<stop offset="0.9942" stop-color="white" stop-opacity="0"/>
</linearGradient>
<linearGradient id="paint5_linear_485_751" x1="107.854" y1="37.9106" x2="114.384" y2="40.4781" gradientUnits="userSpaceOnUse">
<stop stop-color="#E2E8F0"/>
<stop offset="0.9942" stop-color="white" stop-opacity="0"/>
</linearGradient>
<clipPath id="clip0_485_751">
<rect width="233" height="128" fill="white" transform="translate(11)"/>
</clipPath>
</defs>
</svg>
