<svg width="128" height="128" viewBox="0 0 128 128" fill="none" xmlns="http://www.w3.org/2000/svg">
<g clip-path="url(#clip0_484_607)">
<mask id="mask0_484_607" style="mask-type:luminance" maskUnits="userSpaceOnUse" x="0" y="0" width="128" height="128">
<path d="M128 0H0V128H128V0Z" fill="white"/>
</mask>
<g mask="url(#mask0_484_607)">
<path d="M102.582 107.729L79.7563 84.7437L84.9893 79.4616L107.797 102.47L102.582 107.729Z" fill="#858B9B"/>
<path d="M110.517 115.814L93.0144 98.1682C91.5531 96.7035 91.5531 94.3046 93.0144 92.8284C94.4757 91.3522 96.8582 91.3522 98.3195 92.8284L115.822 110.462C117.283 111.939 117.283 114.338 115.822 115.814C114.361 117.29 111.978 117.29 110.517 115.814Z" fill="#858B9B"/>
<path d="M109.272 116.944L86.7527 94.247C86.2297 93.7165 86.2297 92.863 86.7527 92.321L92.5086 86.5198C93.0327 85.9893 93.8807 85.9893 94.4219 86.5198L116.941 109.217C117.464 109.736 117.464 110.589 116.941 111.143L111.185 116.944C110.643 117.463 109.795 117.463 109.272 116.944Z" fill="url(#paint0_linear_484_607)"/>
<path fill-rule="evenodd" clip-rule="evenodd" d="M53.9089 97.8453C54.6166 97.8453 55.3239 97.8278 56.0307 97.7929C56.7376 97.7578 57.4432 97.7053 58.1475 97.6355C58.8518 97.5655 59.5539 97.4781 60.2539 97.3735C60.9539 97.2688 61.651 97.1469 62.3451 97.0077C63.0392 96.8686 63.7295 96.7124 64.4159 96.5391C65.1024 96.3657 65.7843 96.1755 66.4615 95.9683C67.1387 95.7612 67.8105 95.5375 68.4769 95.2973C69.1432 95.0569 69.8032 94.8002 70.4571 94.5273C71.1108 94.2542 71.7576 93.9652 72.3975 93.6603C73.0372 93.3552 73.6692 93.0345 74.2933 92.6983C74.9174 92.362 75.533 92.0105 76.1399 91.6439C76.747 91.2771 77.3447 90.8955 77.9331 90.4991C78.5215 90.1028 79.0999 89.6922 79.6683 89.2673C80.2367 88.8423 80.7944 88.4036 81.3415 87.9511C81.8886 87.4984 82.4243 87.0325 82.9487 86.5535C83.4731 86.0744 83.9855 85.5827 84.4859 85.0783C84.9863 84.5739 85.4741 84.0574 85.9493 83.5289C86.4246 83.0002 86.8868 82.4601 87.3357 81.9087C87.7846 81.3573 88.2199 80.7951 88.6415 80.2221C89.0631 79.6491 89.4704 79.0661 89.8635 78.4729C90.2567 77.8798 90.6352 77.2773 90.9991 76.6655C91.363 76.0535 91.7117 75.4329 92.0453 74.8039C92.3789 74.1747 92.697 73.5377 92.9995 72.8929C93.302 72.2479 93.5888 71.5959 93.8597 70.9369C94.1305 70.2778 94.3851 69.6125 94.6235 68.9409C94.8619 68.2691 95.0838 67.5919 95.2893 66.9093C95.4946 66.2266 95.6833 65.5393 95.8553 64.8473C96.0273 64.1553 96.1823 63.4595 96.3203 62.7599C96.4584 62.0601 96.5794 61.3575 96.6831 60.6519C96.787 59.9463 96.8736 59.2385 96.9431 58.5285C97.0124 57.8186 97.0644 57.1074 97.0991 56.3949C97.1339 55.6823 97.1513 54.9694 97.1513 54.2561C97.1513 53.5426 97.1339 52.8296 97.0991 52.1171C97.0644 51.4047 97.0124 50.6935 96.9431 49.9835C96.8736 49.2736 96.787 48.5658 96.6831 47.8601C96.5794 47.1545 96.4584 46.4518 96.3203 45.7521C96.1823 45.0525 96.0273 44.3567 95.8553 43.6647C95.6833 42.9727 95.4946 42.2853 95.2893 41.6027C95.0838 40.92 94.8619 40.2429 94.6235 39.5713C94.3851 38.8995 94.1305 38.2341 93.8597 37.5751C93.5888 36.916 93.302 36.264 92.9995 35.6191C92.697 34.9743 92.3789 34.3373 92.0453 33.7081C91.7117 33.079 91.363 32.4585 90.9991 31.8467C90.6352 31.2348 90.2567 30.6323 89.8635 30.0391C89.4704 29.4459 89.0631 28.8628 88.6415 28.2899C88.2199 27.7169 87.7846 27.1547 87.3357 26.6032C86.8868 26.0518 86.4246 25.5118 85.9493 24.9832C85.4741 24.4546 84.9863 23.9381 84.4859 23.4337C83.9855 22.9293 83.4731 22.4375 82.9487 21.9584C82.4243 21.4794 81.8886 21.0136 81.3415 20.561C80.7944 20.1084 80.2367 19.6697 79.6683 19.2447C79.0999 18.8198 78.5215 18.4091 77.9331 18.0128C77.3447 17.6165 76.747 17.2349 76.1399 16.8682C75.533 16.5014 74.9174 16.1499 74.2933 15.8137C73.6692 15.4774 73.0372 15.1567 72.3975 14.8517C71.7576 14.5467 71.1108 14.2577 70.4571 13.9847C69.8032 13.7117 69.1432 13.4551 68.4769 13.2147C67.8105 12.9744 67.1387 12.7507 66.4615 12.5436C65.7843 12.3365 65.1024 12.1463 64.4159 11.973C63.7295 11.7997 63.0392 11.6434 62.3451 11.5042C61.651 11.3651 60.9539 11.2431 60.2539 11.1385C59.5539 11.0338 58.8518 10.9465 58.1475 10.8766C57.4432 10.8066 56.7376 10.7542 56.0307 10.7192C55.3239 10.6842 54.6166 10.6667 53.9089 10.6667C53.2013 10.6667 52.494 10.6842 51.7871 10.7192C51.0803 10.7542 50.3748 10.8066 49.6705 10.8766C48.9662 10.9465 48.2641 11.0338 47.5641 11.1385C46.864 11.2431 46.1669 11.3651 45.4729 11.5042C44.7788 11.6434 44.0884 11.7997 43.4019 11.973C42.7155 12.1463 42.0336 12.3365 41.3563 12.5436C40.6791 12.7507 40.0074 12.9744 39.3411 13.2147C38.6747 13.4551 38.0146 13.7117 37.3609 13.9847C36.707 14.2577 36.0602 14.5467 35.4205 14.8517C34.7808 15.1567 34.1488 15.4774 33.5247 15.8137C32.9006 16.1499 32.285 16.5014 31.6779 16.8682C31.071 17.2349 30.4733 17.6165 29.8848 18.0128C29.2964 18.4091 28.718 18.8198 28.1496 19.2447C27.5811 19.6697 27.0234 20.1084 26.4763 20.561C25.9293 21.0136 25.3936 21.4794 24.8692 21.9584C24.3449 22.4375 23.8325 22.9293 23.332 23.4337C22.8316 23.9381 22.3438 24.4546 21.8685 24.9832C21.3933 25.5118 20.9312 26.0518 20.4822 26.6032C20.0333 27.1547 19.598 27.7169 19.1764 28.2899C18.7549 28.8628 18.3475 29.4459 17.9543 30.0391C17.5612 30.6323 17.1827 31.2348 16.8188 31.8467C16.455 32.4585 16.1063 33.079 15.7727 33.7081C15.4391 34.3373 15.121 34.9743 14.8184 35.6191C14.5158 36.264 14.2291 36.916 13.9583 37.5751C13.6875 38.2341 13.4329 38.8995 13.1944 39.5713C12.956 40.2429 12.7341 40.92 12.5287 41.6027C12.3233 42.2853 12.1346 42.9727 11.9626 43.6647C11.7906 44.3567 11.6356 45.0525 11.4976 45.7521C11.3595 46.4518 11.2386 47.1545 11.1347 47.8601C11.0309 48.5658 10.9443 49.2736 10.8749 49.9835C10.8055 50.6935 10.7535 51.4047 10.7188 52.1171C10.684 52.8296 10.6667 53.5426 10.6667 54.2561C10.6667 54.9694 10.684 55.6823 10.7188 56.3949C10.7535 57.1074 10.8055 57.8186 10.8749 58.5285C10.9443 59.2385 11.0309 59.9463 11.1347 60.6519C11.2386 61.3575 11.3595 62.0601 11.4976 62.7599C11.6356 63.4595 11.7906 64.1553 11.9626 64.8473C12.1346 65.5393 12.3233 66.2266 12.5287 66.9093C12.7341 67.5919 12.956 68.2691 13.1944 68.9409C13.4329 69.6125 13.6875 70.2778 13.9583 70.9369C14.2291 71.5959 14.5158 72.2479 14.8184 72.8929C15.121 73.5377 15.4391 74.1747 15.7727 74.8039C16.1063 75.4329 16.455 76.0535 16.8188 76.6655C17.1827 77.2773 17.5612 77.8798 17.9543 78.4729C18.3475 79.0661 18.7549 79.6491 19.1764 80.2221C19.598 80.7951 20.0333 81.3573 20.4822 81.9087C20.9312 82.4601 21.3933 83.0002 21.8685 83.5289C22.3438 84.0574 22.8316 84.5739 23.332 85.0783C23.8325 85.5827 24.3449 86.0744 24.8692 86.5535C25.3936 87.0325 25.9293 87.4984 26.4763 87.9511C27.0234 88.4036 27.5811 88.8423 28.1496 89.2673C28.718 89.6922 29.2964 90.1028 29.8848 90.4991C30.4733 90.8955 31.071 91.2771 31.6779 91.6439C32.285 92.0105 32.9006 92.362 33.5247 92.6983C34.1488 93.0345 34.7808 93.3552 35.4205 93.6603C36.0602 93.9652 36.707 94.2542 37.3609 94.5273C38.0146 94.8002 38.6747 95.0569 39.3411 95.2973C40.0074 95.5375 40.6791 95.7612 41.3563 95.9683C42.0336 96.1755 42.7155 96.3657 43.4019 96.5391C44.0884 96.7124 44.7788 96.8686 45.4729 97.0077C46.1669 97.1469 46.864 97.2688 47.5641 97.3735C48.2641 97.4781 48.9662 97.5655 49.6705 97.6355C50.3748 97.7053 51.0803 97.7578 51.7871 97.7929C52.494 97.8278 53.2013 97.8453 53.9089 97.8453ZM53.9175 89.7721C54.4856 89.7721 55.0534 89.7578 55.6209 89.7293C56.1885 89.7007 56.755 89.658 57.3203 89.6011C57.8858 89.5441 58.4495 89.473 59.0115 89.3877C59.5735 89.3023 60.1331 89.203 60.6903 89.0897C61.2476 88.9762 61.8018 88.8489 62.3529 88.7077C62.9041 88.5663 63.4516 88.4113 63.9953 88.2427C64.5389 88.0739 65.0782 87.8915 65.6131 87.6957C66.148 87.4998 66.678 87.2907 67.2029 87.0683C67.7278 86.8457 68.2471 86.6102 68.7607 86.3617C69.2743 86.1131 69.7816 85.8518 70.2827 85.5777C70.7838 85.3037 71.278 85.0172 71.7653 84.7183C72.2526 84.4195 72.7325 84.1086 73.2049 83.7857C73.6773 83.4626 74.1417 83.1279 74.5981 82.7817C75.0545 82.4354 75.5023 82.0779 75.9415 81.7091C76.3807 81.3403 76.8108 80.9607 77.2317 80.5703C77.6526 80.1799 78.064 79.7791 78.4659 79.3681C78.8676 78.957 79.2592 78.5361 79.6407 78.1053C80.0223 77.6745 80.3933 77.2344 80.7537 76.7851C81.1142 76.3357 81.4637 75.8776 81.8021 75.4107C82.1405 74.9437 82.4676 74.4685 82.7833 73.9851C83.0989 73.5017 83.4028 73.0107 83.6949 72.5121C83.9869 72.0135 84.2668 71.5079 84.5347 70.9951C84.8025 70.4824 85.058 69.9633 85.3009 69.4379C85.5438 68.9123 85.774 68.3809 85.9913 67.8439C86.2088 67.3068 86.4132 66.7646 86.6047 66.2173C86.796 65.6698 86.9742 65.1179 87.1391 64.5617C87.304 64.0054 87.4556 63.4453 87.5937 62.8813C87.7317 62.3174 87.8561 61.7504 87.9669 61.1803C88.0778 60.61 88.175 60.0373 88.2583 59.4623C88.3416 58.8873 88.4112 58.3106 88.4669 57.7321C88.5225 57.1534 88.5642 56.5738 88.5921 55.9933C88.6201 55.4126 88.6341 54.8316 88.6341 54.2503C88.6341 53.6689 88.6201 53.0879 88.5921 52.5073C88.5642 51.9266 88.5225 51.347 88.4669 50.7685C88.4112 50.1899 88.3416 49.6131 88.2583 49.0381C88.175 48.463 88.0778 47.8904 87.9669 47.3203C87.8561 46.7501 87.7317 46.1831 87.5937 45.6191C87.4556 45.0552 87.304 44.4951 87.1391 43.9387C86.9742 43.3824 86.796 42.8306 86.6047 42.2833C86.4132 41.7359 86.2088 41.1937 85.9913 40.6565C85.774 40.1194 85.5438 39.5881 85.3009 39.0627C85.058 38.5371 84.8025 38.0179 84.5347 37.5053C84.2668 36.9926 83.9869 36.4869 83.6949 35.9883C83.4028 35.4896 83.0989 34.9986 82.7833 34.5153C82.4676 34.0319 82.1405 33.5568 81.8021 33.0899C81.4636 32.6229 81.1141 32.1647 80.7537 31.7153C80.3933 31.2659 80.0223 30.8259 79.6407 30.3952C79.2592 29.9644 78.8676 29.5435 78.4657 29.1324C78.064 28.7214 77.6526 28.3206 77.2317 27.9302C76.8108 27.5398 76.3807 27.1602 75.9415 26.7914C75.5023 26.4226 75.0545 26.0651 74.5981 25.7188C74.1417 25.3724 73.6773 25.0378 73.2049 24.7148C72.7325 24.3918 72.2526 24.0809 71.7653 23.7821C71.278 23.4832 70.7838 23.1967 70.2827 22.9227C69.7816 22.6486 69.2743 22.3873 68.7607 22.1388C68.2471 21.8902 67.7278 21.6547 67.2029 21.4323C66.678 21.2098 66.148 21.0006 65.6131 20.8048C65.0782 20.6089 64.5389 20.4266 63.9953 20.2579C63.4516 20.0891 62.9041 19.9341 62.3529 19.7929C61.8018 19.6516 61.2476 19.5243 60.6903 19.4109C60.1331 19.2974 59.5735 19.1981 59.0115 19.1128C58.4495 19.0275 57.8858 18.9563 57.3203 18.8994C56.755 18.8424 56.1885 18.7996 55.6209 18.7711C55.0534 18.7426 54.4856 18.7283 53.9175 18.7283C53.3494 18.7283 52.7816 18.7426 52.2141 18.7711C51.6466 18.7996 51.0802 18.8424 50.5147 18.8994C49.9492 18.9563 49.3855 19.0275 48.8235 19.1128C48.2615 19.1981 47.7019 19.2974 47.1447 19.4109C46.5875 19.5243 46.0333 19.6516 45.4821 19.7929C44.931 19.9341 44.3836 20.0891 43.8399 20.2579C43.2962 20.4266 42.7568 20.6089 42.2219 20.8048C41.687 21.0006 41.157 21.2098 40.6321 21.4323C40.1072 21.6547 39.5879 21.8902 39.0743 22.1388C38.5607 22.3873 38.0534 22.6486 37.5523 22.9227C37.0512 23.1967 36.557 23.4832 36.0697 23.7821C35.5824 24.0809 35.1025 24.3918 34.6301 24.7148C34.1577 25.0378 33.6933 25.3724 33.2369 25.7188C32.7806 26.0651 32.3329 26.4226 31.8937 26.7914C31.4545 27.1602 31.0244 27.5398 30.6034 27.9302C30.1824 28.3206 29.771 28.7214 29.3693 29.1324C28.9675 29.5435 28.5759 29.9644 28.1943 30.3952C27.8128 30.8259 27.4418 31.2659 27.0813 31.7153C26.7209 32.1647 26.3714 32.6229 26.033 33.0899C25.6945 33.5568 25.3675 34.0319 25.0518 34.5153C24.7362 34.9986 24.4323 35.4896 24.1402 35.9883C23.8481 36.4869 23.5682 36.9926 23.3003 37.5053C23.0325 38.0179 22.7771 38.5371 22.5342 39.0627C22.2913 39.5881 22.0611 40.1194 21.8437 40.6565C21.6263 41.1937 21.4218 41.7359 21.2304 42.2833C21.039 42.8306 20.8609 43.3824 20.6959 43.9387C20.531 44.4951 20.3795 45.0552 20.2415 45.6191C20.1034 46.1831 19.979 46.7501 19.8681 47.3203C19.7573 47.8904 19.6602 48.463 19.5768 49.0381C19.4934 49.6131 19.4239 50.1899 19.3682 50.7685C19.3125 51.347 19.2707 51.9266 19.2429 52.5073C19.215 53.0879 19.201 53.6689 19.201 54.2503C19.201 54.8316 19.215 55.4126 19.2429 55.9933C19.2707 56.5738 19.3125 57.1534 19.3682 57.7321C19.4239 58.3106 19.4934 58.8873 19.5768 59.4623C19.6602 60.0373 19.7573 60.61 19.8681 61.1803C19.979 61.7504 20.1034 62.3174 20.2415 62.8813C20.3795 63.4453 20.531 64.0054 20.6959 64.5617C20.8609 65.1179 21.039 65.6698 21.2304 66.2173C21.4218 66.7646 21.6263 67.3068 21.8437 67.8439C22.0611 68.3809 22.2913 68.9123 22.5342 69.4379C22.7771 69.9633 23.0325 70.4824 23.3003 70.9951C23.5682 71.5079 23.8481 72.0135 24.1402 72.5121C24.4323 73.0107 24.7362 73.5017 25.0518 73.9851C25.3675 74.4685 25.6945 74.9437 26.033 75.4107C26.3714 75.8776 26.7209 76.3357 27.0813 76.7851C27.4418 77.2344 27.8128 77.6745 28.1943 78.1053C28.5759 78.5361 28.9675 78.957 29.3693 79.3681C29.771 79.7791 30.1824 80.1799 30.6034 80.5703C31.0244 80.9607 31.4545 81.3403 31.8937 81.7091C32.3329 82.0779 32.7806 82.4354 33.2369 82.7817C33.6933 83.1279 34.1577 83.4626 34.6301 83.7857C35.1025 84.1086 35.5824 84.4195 36.0697 84.7183C36.557 85.0172 37.0512 85.3037 37.5523 85.5777C38.0534 85.8518 38.5607 86.1131 39.0743 86.3617C39.5879 86.6102 40.1072 86.8457 40.6321 87.0683C41.157 87.2907 41.687 87.4998 42.2219 87.6957C42.7568 87.8915 43.2962 88.0739 43.8399 88.2427C44.3836 88.4113 44.931 88.5663 45.4821 88.7077C46.0333 88.8489 46.5875 88.9762 47.1447 89.0897C47.7019 89.203 48.2615 89.3023 48.8235 89.3877C49.3855 89.473 49.9492 89.5441 50.5147 89.6011C51.0802 89.658 51.6466 89.7007 52.2141 89.7293C52.7816 89.7578 53.3494 89.7721 53.9175 89.7721Z" fill="url(#paint1_linear_484_607)"/>
</g>
</g>
<defs>
<linearGradient id="paint0_linear_484_607" x1="86.3465" y1="101.732" x2="117.338" y2="101.732" gradientUnits="userSpaceOnUse">
<stop stop-color="#B0BACC"/>
<stop offset="1" stop-color="#969EAE"/>
</linearGradient>
<linearGradient id="paint1_linear_484_607" x1="10.6266" y1="54.2733" x2="97.1673" y2="54.2733" gradientUnits="userSpaceOnUse">
<stop stop-color="#B0BACC"/>
<stop offset="1" stop-color="#969EAE"/>
</linearGradient>
<clipPath id="clip0_484_607">
<rect width="128" height="128" fill="white"/>
</clipPath>
</defs>
</svg>
